<svg xmlns="http://www.w3.org/2000/svg" xmlns:xlink="http://www.w3.org/1999/xlink" width="100" zoomAndPan="magnify" viewBox="0 0 75 74.999997" height="100" preserveAspectRatio="xMidYMid meet" version="1.0"><path fill="rgb(100%, 49.798584%, 37.249756%)" d="M 66.667969 0 L 8.332031 0 C 3.730469 0 0 3.730469 0 8.332031 L 0 66.667969 C 0 71.269531 3.730469 75 8.332031 75 L 66.667969 75 C 71.269531 75 75 71.269531 75 66.667969 L 75 8.332031 C 75 3.730469 71.269531 0 66.667969 0 Z M 25 58.332031 L 14.488281 58.332031 L 14.488281 29.167969 L 25 29.167969 Z M 19.558594 23.820312 C 16.347656 23.820312 14.199219 21.679688 14.199219 18.820312 C 14.199219 15.960938 16.339844 13.820312 19.914062 13.820312 C 23.125 13.820312 25.269531 15.960938 25.269531 18.820312 C 25.269531 21.679688 23.128906 23.820312 19.558594 23.820312 Z M 62.5 58.332031 L 52.324219 58.332031 L 52.324219 42.390625 C 52.324219 37.984375 49.613281 36.964844 48.597656 36.964844 C 47.578125 36.964844 44.1875 37.644531 44.1875 42.390625 C 44.1875 43.070312 44.1875 58.332031 44.1875 58.332031 L 33.675781 58.332031 L 33.675781 29.167969 L 44.1875 29.167969 L 44.1875 33.238281 C 45.542969 30.863281 48.253906 29.167969 53.339844 29.167969 C 58.429688 29.167969 62.5 33.238281 62.5 42.390625 Z M 62.5 58.332031 " fill-opacity="1" fill-rule="nonzero"/></svg>