<?xml version="1.0" encoding="UTF-8"?>
<svg width="50" height="50" version="1.0" viewBox="0 0 37.5 37.5" xmlns="http://www.w3.org/2000/svg" zoomAndPan="magnify">
<defs>
<clipPath id="b">
<path d="m9 22h7v8.8086h-7z"/>
</clipPath>
<clipPath id="a">
<path d="m22 6.0586h15.008v14.941h-15.008z"/>
</clipPath>
</defs>
<g clip-path="url(#b)">
<path d="m10.367 29.98c-0.22266 0-0.42188-0.011719-0.58984-0.039063v0.73828c0.34766 0.13672 0.63281 0.20312 0.86719 0.20312 0.87891 0 1.6875-0.53125 2.4258-1.5977 0.94531-1.3828 1.707-3.6016 2.2891-6.6484h-1.3516c-0.23828 1.8711-0.66406 3.6055-1.2773 5.1914 0.042969-0.32031-0.0625-0.875-0.31641-1.6758l-1.1133-3.5156h-1.3945l1.5547 4.7031c0.23437 0.70703 0.35156 1.1758 0.35156 1.4062 0 0.33594-0.14844 0.63672-0.45312 0.90234-0.25 0.21875-0.57812 0.33203-0.99219 0.33203z" fill="#0f5d86"/>
</g>
<path d="m30.219 20.473v8.2461h4.0312v-1.0156h-2.6758v-7.2305z" fill="#de8a03"/>
<path d="m1.9492 22.145h0.015625l2.1484 6.5742h1.0781l2.1641-6.5742h0.011719c0.22266 2.0547 0.36719 4.2422 0.41406 6.5742h1.4258c-0.070312-2.4922-0.28516-5.2422-0.65625-8.2461h-1.6797l-2.0664 6.0586h-0.011719l-2.0469-6.0586h-1.7617c-0.33203 2.5664-0.54297 5.3164-0.62891 8.2461h1.2969c0.039062-2.4141 0.14062-4.6016 0.29688-6.5742z" fill="#0f5d86"/>
<path d="m28.988 24.441c0-2.7266-1.1016-4.0938-3.3047-4.0938-1.0781 0-1.9219 0.34766-2.5273 1.0391-0.66016 0.75781-0.99219 1.8711-0.99219 3.3477 0 1.4492 0.29297 2.5117 0.87891 3.1875 0.53906 0.61328 1.3477 0.91797 2.4297 0.91797 0.40234 0 0.77344-0.046875 1.1094-0.14453l2.0312 1.1523 0.55078-0.92969h-0.003906l-1.5586-0.74219c0.14063-0.11719 0.27344-0.23828 0.39453-0.375 0.66016-0.75391 0.99219-1.875 0.99219-3.3594zm-3.3789 3.3789c-0.67969 0-1.1797-0.25-1.4961-0.74609v-0.007813c-0.34375-0.53516-0.51562-1.4023-0.51562-2.5859 0-2.0781 0.65234-3.1172 1.9453-3.1172 0.67969 0 1.1836 0.25 1.5 0.74609 0.34375 0.53906 0.51562 1.3945 0.51562 2.5703 0 2.0898-0.65234 3.1406-1.9492 3.1406z" fill="#de8a03"/>
<path d="m20.59 24.695s-1.2188-0.67578-1.8203-0.99609c-0.66016-0.35938-1.0195-0.78125-1.0195-1.2695 0-0.31641 0.14453-0.57813 0.37891-0.78125 0.23438-0.20703 0.57031-0.30469 1.0039-0.30469 0.53516 0 1.0781 0.11328 1.6289 0.34375l0.32812-0.71094c-0.64453-0.41016-1.3633-0.60937-2.1484-0.60937-0.76562 0-1.3867 0.20312-1.8672 0.61719-0.48047 0.41016-0.72266 0.94531-0.72266 1.6172 0 0.80469 0.32422 1.2969 0.96875 1.7539 0 0 1.1875 0.66406 1.7852 0.98047 0.64062 0.35156 0.99219 0.76953 0.99219 1.2617 0 0.38672-0.17188 0.69531-0.46094 0.91406-0.28906 0.21875-0.69141 0.32812-1.1992 0.32812-0.54688 0-1.1523-0.16016-1.8242-0.48828l-0.36328 0.71094c0.78125 0.51172 1.5781 0.76562 2.4102 0.76562 0.89062 0 1.5938-0.22266 2.1211-0.66797 0.52734-0.44922 0.79297-1.0234 0.79297-1.7266l0.007812 0.007812c0-0.80469-0.32812-1.2891-0.99219-1.7461z" fill="#de8a03"/>
<path d="m25.5 9.0469c-0.17578 0-0.29297 0.023437-0.41797 0.050781v0.019532h0.019531c0.085938 0.15234 0.22656 0.26953 0.32813 0.40625 0.085937 0.16016 0.15625 0.32031 0.23828 0.47656l0.019531-0.023438c0.14453-0.097656 0.21484-0.25391 0.21484-0.49609-0.058594-0.070313-0.070313-0.14062-0.12109-0.20703-0.0625-0.10156-0.19531-0.14844-0.27734-0.22656z" fill="#0f5d86"/>
<g clip-path="url(#a)">
<path d="m36.676 20.332c-0.29688-0.38672-0.66797-0.72656-1.0664-1.0039-0.32812-0.21875-1.043-0.52344-1.1797-0.88672l-0.019532-0.023437c0.22266-0.019531 0.49219-0.097657 0.70703-0.15625 0.34766-0.089844 0.66406-0.070313 1.0234-0.16016 0.16406-0.039062 0.32812-0.089843 0.49219-0.14062v-0.085938c-0.18359-0.17969-0.32031-0.42578-0.51172-0.58984-0.51953-0.44141-1.0977-0.86719-1.6914-1.2266-0.32422-0.20312-0.73047-0.32812-1.0703-0.5-0.12109-0.058594-0.32812-0.089844-0.39844-0.1875-0.18359-0.21875-0.28906-0.50781-0.42188-0.76953-0.29297-0.54687-0.58203-1.1562-0.83594-1.7344-0.18359-0.39063-0.29688-0.77734-0.52344-1.1367-1.0547-1.6953-2.2031-2.7227-3.9609-3.7266-0.37891-0.20703-0.83203-0.29688-1.3125-0.40625-0.25781-0.011718-0.51172-0.03125-0.76953-0.042968-0.16797-0.070313-0.32812-0.25781-0.47266-0.35156-0.58203-0.35547-2.0898-1.1328-2.5195-0.10547-0.27734 0.64453 0.41016 1.2852 0.64453 1.6133 0.17578 0.22656 0.39844 0.48828 0.52344 0.74609 0.070312 0.17188 0.089844 0.34766 0.16406 0.53125 0.16016 0.4375 0.31641 0.92578 0.53125 1.3359 0.11328 0.20703 0.23438 0.42969 0.37891 0.61328 0.082031 0.10938 0.22266 0.16016 0.25391 0.33984-0.14453 0.20312-0.15234 0.5-0.23438 0.74609-0.36719 1.1289-0.22266 2.5234 0.29688 3.3555 0.16406 0.24609 0.55469 0.79297 1.0781 0.58594 0.46094-0.17969 0.35938-0.74609 0.48828-1.2461 0.03125-0.12109 0.011719-0.19922 0.074219-0.28125v0.023438c0.14453 0.28125 0.28906 0.54687 0.42188 0.82812 0.31641 0.48828 0.86719 0.99609 1.3281 1.3359 0.24609 0.17969 0.44141 0.48828 0.74609 0.59766v-0.027344h-0.023438c-0.066406-0.089843-0.15234-0.12891-0.23438-0.19922-0.18359-0.17969-0.39062-0.39844-0.53906-0.59766-0.42578-0.5625-0.80469-1.1797-1.1445-1.8164-0.16797-0.3125-0.30859-0.64844-0.44141-0.95703-0.0625-0.12109-0.0625-0.29688-0.16406-0.35938-0.15625 0.21875-0.37891 0.40625-0.49219 0.67578-0.19531 0.42969-0.21484 0.95703-0.28906 1.5078-0.039063 0.007812-0.019531 0-0.039063 0.019531-0.32812-0.078125-0.44141-0.41016-0.5625-0.6875-0.30859-0.70703-0.35938-1.8438-0.09375-2.6602 0.074219-0.20703 0.37891-0.86719 0.25781-1.0664-0.066407-0.19141-0.26953-0.30078-0.37891-0.45313-0.13281-0.18359-0.27734-0.42578-0.36719-0.63672-0.24609-0.55469-0.37109-1.1758-0.63672-1.7305-0.12109-0.25781-0.33594-0.53125-0.51172-0.76562-0.19531-0.26953-0.41016-0.45703-0.5625-0.77734-0.050782-0.10938-0.125-0.28906-0.042969-0.40625 0.023437-0.082031 0.0625-0.11328 0.14453-0.13672 0.13281-0.10547 0.51172 0.035156 0.64453 0.09375 0.37891 0.14844 0.69922 0.28906 1.0156 0.5 0.14453 0.097656 0.30078 0.28516 0.48438 0.33594h0.21484c0.32812 0.070313 0.69531 0.019531 1.0039 0.10938 0.54297 0.16797 1.0352 0.41797 1.4727 0.6875 1.3438 0.82812 2.4492 2.0039 3.1953 3.4062 0.125 0.23047 0.17969 0.44141 0.28906 0.67969 0.21484 0.49219 0.48047 0.98828 0.69922 1.4609 0.21484 0.46875 0.42188 0.94922 0.73047 1.3398 0.15234 0.20703 0.76562 0.31641 1.043 0.42578 0.20312 0.089844 0.52344 0.17188 0.70703 0.28125 0.35156 0.20703 0.69531 0.44922 1.0273 0.67578 0.16797 0.11328 0.67578 0.36328 0.70703 0.56641-0.82031-0.023438-1.457 0.058593-1.9883 0.27734-0.15234 0.0625-0.39844 0.0625-0.41797 0.25 0.082031 0.078125 0.09375 0.20703 0.16797 0.32031 0.12109 0.19922 0.33203 0.46484 0.53125 0.60547 0.21484 0.16406 0.42969 0.32422 0.65234 0.46094 0.39844 0.24219 0.85156 0.38281 1.2422 0.62109 0.22266 0.14062 0.44922 0.31641 0.67578 0.46484 0.10938 0.074218 0.18359 0.21094 0.32812 0.25781v-0.027344c-0.070312-0.089844-0.09375-0.21875-0.16016-0.32031-0.10547-0.10156-0.20703-0.1875-0.30859-0.28906z" fill="#0f5d86"/>
</g>
</svg>
