<?xml version="1.0" encoding="UTF-8"?>
<svg width="50" height="50" version="1.0" viewBox="0 0 37.5 37.5" xmlns="http://www.w3.org/2000/svg" zoomAndPan="magnify">
<defs>
<clipPath id="a">
<path d="m2 0.35156h33.707v36.656h-33.707z"/>
</clipPath>
</defs>
<g clip-path="url(#a)">
<path d="m21.977 4.6055 7.5781 4.3516c0.21484-0.22656 0.46484-0.42578 0.74609-0.58594 1.5742-0.89844 3.5781-0.36719 4.4922 1.1953 0.90234 1.5625 0.36719 3.5547-1.207 4.4648-0.28125 0.16016-0.57422 0.27344-0.875 0.34766v8.7031c0.29687 0.070313 0.58984 0.18359 0.86719 0.34375 1.582 0.90625 2.1172 2.9023 1.207 4.4648-0.90625 1.5625-2.9219 2.0938-4.4922 1.1953-0.3125-0.17969-0.58594-0.40234-0.8125-0.65625l-7.5352 4.3242c0.10547 0.32422 0.16406 0.67188 0.16406 1.0312 0 1.7969-1.4688 3.2656-3.2852 3.2656-1.8164 0-3.2852-1.4609-3.2852-3.2656 0-0.32031 0.046876-0.63281 0.13281-0.92578l-7.5781-4.3477c-0.21094 0.21875-0.45703 0.41406-0.73828 0.57422-1.582 0.89844-3.5859 0.36719-4.4883-1.1953-0.90625-1.5625-0.36719-3.5586 1.2031-4.4648 0.27734-0.16016 0.57031-0.27344 0.86719-0.34375v-8.7031c-0.30078-0.074218-0.59375-0.1875-0.875-0.34766-1.5742-0.89844-2.1094-2.9023-1.207-4.4648 0.90625-1.5625 2.918-2.0938 4.4922-1.1953 0.28125 0.16016 0.53125 0.35938 0.74219 0.58203l7.582-4.3516c-0.085937-0.29687-0.13281-0.60547-0.13281-0.92969 0-1.8047 1.4688-3.2656 3.2852-3.2656 1.8164 0 3.2852 1.4609 3.2852 3.2656 0 0.32422-0.046875 0.63672-0.13281 0.93359zm-0.79297 1.3398 7.6016 4.3594c-0.23438 0.82031-0.14844 1.7305 0.3125 2.5273 0.46094 0.80078 1.2148 1.332 2.0508 1.5391v8.7148c-0.042969 0.007812-0.082032 0.019531-0.125 0.03125l-9.9258-17.086c0.027344-0.027344 0.058594-0.054688 0.085938-0.085938zm-4.6289 0.089844-9.9258 17.086c-0.042968-0.011719-0.085937-0.023438-0.12891-0.035156v-8.7148c0.83594-0.20703 1.5898-0.73828 2.0508-1.5391 0.46484-0.79688 0.55078-1.707 0.3125-2.5312l7.5977-4.3594 0.09375 0.09375zm3.1875 0.77344 9.9258 17.082c-0.22656 0.21094-0.41797 0.45703-0.58203 0.73438-0.15625 0.27344-0.27344 0.5625-0.34375 0.85938h-19.832c-0.074218-0.29688-0.1875-0.58594-0.34766-0.85938-0.16016-0.27734-0.35547-0.51953-0.57812-0.73047l9.9258-17.086c0.28906 0.085937 0.59766 0.12891 0.91406 0.12891 0.32031 0 0.62891-0.042969 0.91797-0.12891zm1.5117 24.777 7.5508-4.3359c-0.023438-0.070312-0.042969-0.14062-0.058594-0.21094h-19.84c-0.011719 0.039063-0.023438 0.082032-0.035156 0.125l7.5859 4.3555c0.59766-0.61719 1.4375-1 2.3672-1 0.96484 0 1.8281 0.41016 2.4297 1.0664z" fill="#e434ab" fill-rule="evenodd"/>
</g>
</svg>
