<?xml version="1.0" encoding="UTF-8"?>
<svg width="50" height="50" version="1.0" viewBox="0 0 37.5 37.5" xmlns="http://www.w3.org/2000/svg" zoomAndPan="magnify">
<defs>
<clipPath id="a">
<path d="m0 0.10547h37.008v36.902h-37.008z"/>
</clipPath>
</defs>
<g clip-path="url(#a)">
<path d="m0 37.605h37.5v-37.5h-37.5z" fill="#0079cb"/>
</g>
<path d="m8.2891 18.977-0.011718 1.5391h4.8828v13.867h3.4531v-13.867h4.8789v-1.5078c0-0.83203-0.015626-1.5312-0.039063-1.5469-0.019531-0.023438-2.9883-0.035157-6.5898-0.03125l-6.5547 0.019531z" fill="#fff"/>
<path d="m30.258 17.406c0.95313 0.23828 1.6797 0.66016 2.3477 1.3516 0.34375 0.36719 0.85547 1.0391 0.89844 1.2031 0.011719 0.046874-1.6211 1.1406-2.6094 1.7539-0.035156 0.023437-0.17578-0.12891-0.33984-0.36719-0.48047-0.70312-0.98828-1.0078-1.7617-1.0586-1.1367-0.078124-1.8672 0.51563-1.8633 1.5117 0 0.28906 0.042968 0.46484 0.16406 0.69922 0.25 0.51953 0.71484 0.82812 2.1719 1.4609 2.6836 1.1523 3.832 1.9141 4.5469 3 0.79688 1.207 0.97656 3.1367 0.43359 4.5703-0.59375 1.5586-2.0703 2.6172-4.1484 2.9688-0.64062 0.11328-2.1641 0.097656-2.8555-0.027344-1.5078-0.26953-2.9375-1.0117-3.8164-1.9883-0.34375-0.38281-1.0195-1.375-0.97656-1.4492 0.019531-0.023437 0.17188-0.11719 0.34375-0.21875 0.16797-0.09375 0.80078-0.45703 1.3945-0.80469l1.0781-0.62109 0.22656 0.33203c0.3125 0.48047 1.0039 1.1406 1.4219 1.3633 1.1953 0.62891 2.8398 0.53906 3.6484-0.18359 0.34766-0.31641 0.48828-0.64453 0.48828-1.125 0-0.4375-0.054687-0.62891-0.28125-0.95312-0.28906-0.41797-0.88672-0.76953-2.5742-1.5-1.9375-0.83594-2.7695-1.3516-3.5312-2.1758-0.44141-0.47656-0.85547-1.2383-1.0312-1.875-0.14062-0.52734-0.17578-1.8555-0.066406-2.3906 0.40234-1.8711 1.8125-3.1719 3.8477-3.5586 0.66016-0.125 2.1953-0.078125 2.8438 0.082031z" fill="#fff"/>
</svg>
