<?xml version="1.0" encoding="UTF-8"?>
<svg width="100" height="100" version="1.0" viewBox="0 0 75 75" xmlns="http://www.w3.org/2000/svg" zoomAndPan="magnify">
<defs>
<clipPath id="c">
<path d="m0 7.5h75v56.25h-75z"/>
</clipPath>
<clipPath id="b">
<path d="m0 7.5h39v39.5h-39z"/>
</clipPath>
<clipPath id="a">
<path d="m36 7.5h39v39.5h-39z"/>
</clipPath>
</defs>
<g clip-path="url(#c)">
<path d="m1.6484 7.6406h71.703c0.83203 0 1.5 0.67188 1.5 1.4805v53.148c0 0.8125-0.66797 1.4805-1.5 1.4805h-71.703c-0.83203 0-1.5-0.66797-1.5-1.4805v-53.148c0-0.80859 0.66797-1.4805 1.5-1.4805zm70.203 2.9766h-68.703v50.156h68.703z" fill="#ff7e5e"/>
</g>
<g clip-path="url(#b)">
<path d="m0.58984 10.18c-0.58203-0.58203-0.58203-1.5156 0-2.0977 0.58203-0.58203 1.5156-0.58203 2.1172-0.019531l35.852 35.809c0.58203 0.58203 0.58203 1.5156 0 2.0977-0.58203 0.58203-1.5156 0.58203-2.1172 0.019531z" fill="#ff7e5e"/>
</g>
<g clip-path="url(#a)">
<path d="m72.293 8.0625c0.60156-0.5625 1.5352-0.5625 2.1172 0.019531 0.58203 0.58203 0.58203 1.5156 0 2.0977l-35.852 35.809c-0.58203 0.5625-1.5352 0.5625-2.1172-0.019531-0.58203-0.58203-0.58203-1.5156 0.019532-2.0977z" fill="#ff7e5e"/>
</g>
</svg>
