<?xml version="1.0" encoding="UTF-8"?>
<svg width="50" height="50" version="1.0" viewBox="0 0 37.5 37.5" xmlns="http://www.w3.org/2000/svg" zoomAndPan="magnify">
<defs>
<clipPath id="a">
<path d="m0 0h37.008v37.008h-37.008z"/>
</clipPath>
</defs>
<g clip-path="url(#a)">
<path d="m0 0h37.5v37.5h-37.5z" fill="#ffd500"/>
</g>
<path d="m24.52 28.07c0.71875 1.1719 1.5039 2.293 3.1641 2.293 1.3906 0 2.125-0.69531 2.125-1.6523 0-1.1445-0.75781-1.5547-2.2891-2.2227l-0.84375-0.35547c-2.4258-1.0312-4.0391-2.3203-4.0391-5.043 0-2.5117 1.9219-4.4219 4.9258-4.4219 2.1367 0 3.6758 0.74219 4.7852 2.6797l-2.6211 1.6758c-0.57422-1.0312-1.1992-1.4375-2.1641-1.4375-0.98438 0-1.6094 0.625-1.6094 1.4375 0 1.0039 0.625 1.4102 2.0664 2.0312l0.84375 0.35937c2.8594 1.2148 4.4688 2.4609 4.4688 5.2539 0 3.0156-2.3789 4.6641-5.5703 4.6641-3.125 0-4.8984-1.5664-5.8867-3.5078zm-12.07 0.085938c0.52734 0.94141 1.3281 1.668 2.4805 1.668 1.1016 0 1.7383-0.43359 1.7383-2.1289v-11.027h3.4688v11.562c0 3.5078-2.0312 5.1016-5.0039 5.1016-2.6836 0-4.6211-1.8164-5.4102-3.5078z"/>
</svg>
