<?xml version="1.0" encoding="UTF-8"?>
<svg width="50" height="50" version="1.0" viewBox="0 0 37.5 37.5" xmlns="http://www.w3.org/2000/svg" zoomAndPan="magnify">
<defs>
<clipPath id="d">
<path d="m0 0h37.008v37.008h-37.008z"/>
</clipPath>
<clipPath id="c">
<path d="m29 15h6.625v7h-6.625z"/>
</clipPath>
<clipPath id="b">
<path d="m15 0h20.625v14h-20.625z"/>
</clipPath>
<clipPath id="a">
<path d="m2 19h33.625v18.008h-33.625z"/>
</clipPath>
</defs>
<g clip-path="url(#d)" fill="#fff">
<path d="m0 0h37.5v45h-37.5z"/>
<path d="m0 0h37.5v37.5h-37.5z"/>
<path d="m0 0h37.5v37.5h-37.5z"/>
</g>
<g clip-path="url(#c)">
<path d="m35.23 18.43c0 1.707-1.3906 3.0977-3.1055 3.0977-1.7109-0.003906-3.0977-1.3906-3.0977-3.1016 0-0.98047 0.45703-1.8555 1.168-2.4219l0.019532-0.019531c0.10156-0.074219 0.21094-0.14844 0.32031-0.21875 0 0 0.015625 0 0.015625-0.015625 0.050781-0.023438 0.097657-0.058594 0.14844-0.085938 0.011719 0 0.023437-0.011718 0.035156-0.011718 0.050781-0.023438 0.11328-0.050782 0.17188-0.074219 0.0625-0.023437 0.125-0.046875 0.17578-0.070313 0.011719 0 0.023438-0.015624 0.035157-0.015624 0.050781-0.011719 0.097656-0.035157 0.14844-0.046876 0.011719 0 0.035156-0.015624 0.050781-0.015624 0.058594-0.011719 0.10938-0.023438 0.17188-0.035157h0.011719l0.18359-0.039062c0.015625 0 0.035156 0 0.050781-0.011719 0.050781 0 0.097656-0.011719 0.14844-0.011719h0.058594c0.0625 0 0.125-0.011719 0.19922-0.011719h0.16016c0.046875 0 0.085938 0 0.13672 0.011719h0.023438c0.097656 0.011719 0.19531 0.023438 0.29687 0.050781 1.418 0.3125 2.4688 1.5547 2.4727 3.0469z" fill="#98405b"/>
</g>
<g clip-path="url(#b)">
<path d="m15.984-0.019531h19.383l-4.4492 13.09c-0.18359 0.035157-0.37109 0.097657-0.55469 0.16016l-4.6797-9.5234-4.6953 9.4609c-0.1875-0.058594-0.38281-0.097657-0.58203-0.13281z" fill="#98405b"/>
</g>
<path d="m16.281 18.418v-0.007813c0-1.4375 0.98438-2.6445 2.3164-2.9844l0.023438-0.003906v-0.003906c0.058594-0.011719 0.10938-0.023438 0.17188-0.035157h0.035156c0.050781-0.011718 0.097656-0.011718 0.14844-0.027343h0.050782c0.046875 0 0.085937-0.011719 0.13281-0.011719h0.48047c0.050781 0 0.085937 0.011719 0.125 0.011719 0.027344 0 0.035156 0 0.0625 0.015625 0.046875 0.011718 0.085937 0.011718 0.13672 0.023437 0.011718 0 0.023437 0 0.046875 0.011719l0.17188 0.035156h0.015625c0.046875 0.015625 0.097656 0.027344 0.14453 0.050782 0.015625 0 0.027344 0.015624 0.050781 0.015624 0.035157 0.011719 0.085938 0.023438 0.125 0.046876 0.011719 0 0.023438 0.011718 0.035157 0.011718 0.050781 0.023438 0.097656 0.035156 0.14844 0.0625h0.011719c0.0625 0.023438 0.11328 0.050782 0.16406 0.085938h-0.003906 0.015625c0.046875 0.023437 0.097656 0.058594 0.14844 0.085937 0.011719 0 0.011719 0.011719 0.023438 0.011719 0.046875 0.023438 0.085938 0.0625 0.13672 0.085938l0.011719 0.011718c0.14844 0.10938 0.28125 0.23438 0.41797 0.35547l0.011719 0.011719c0.52734 0.55469 0.85156 1.3047 0.85156 2.1289v0.011719c-0.058594 1.668-1.4258 2.9961-3.1055 2.9961-1.6797 0-3.043-1.3281-3.1016-2.9883v-0.007812z" fill="#98405b"/>
<path d="m9.6016 18.43c0 0.41016-0.082031 0.80469-0.23828 1.1836-0.15625 0.38281-0.38281 0.71484-0.67188 1.0078-0.29297 0.28906-0.62891 0.51172-1.0078 0.67188-0.37891 0.15625-0.77734 0.23438-1.1875 0.23438-0.41406 0-0.80859-0.078125-1.1875-0.23438-0.38281-0.16016-0.71875-0.38281-1.0078-0.67188-0.29297-0.29297-0.51562-0.625-0.67188-1.0078-0.16016-0.37891-0.23828-0.77344-0.23828-1.1836 0-0.41016 0.078125-0.80469 0.23828-1.1836 0.15625-0.38281 0.37891-0.71484 0.67188-1.0078 0.28906-0.28906 0.625-0.51172 1.0078-0.67188 0.37891-0.15625 0.77344-0.23438 1.1875-0.23438 0.41016 0 0.80859 0.078125 1.1875 0.23438 0.37891 0.16016 0.71484 0.38281 1.0078 0.67188 0.28906 0.29297 0.51562 0.625 0.67188 1.0078 0.15625 0.37891 0.23828 0.77344 0.23828 1.1836z" fill="#98405b"/>
<g clip-path="url(#a)">
<path d="m2.7383 29.012c0.29297-1.793 1.1172-3.4766 1.9102-5.0859 0.046874-0.097656 0.085937-0.1875 0.13672-0.28516 0.26953 0.097656 0.55469 0.17188 0.84766 0.22266-0.46875 2.6055 0.86328 5.2969 3.4531 6.625l0.46484 0.24609 0.50391-0.18359c2.1562-0.76172 4.1523-2.0039 5.918-3.6641 0.95703-0.89453 1.8008-1.8906 2.5234-2.9727l0.039062-0.0625c0.28125 0.046876 0.56641 0.058594 0.85156 0.058594 2.5469-0.003906 4.6914-1.7305 5.3242-4.0742l0.007812-0.039063h2.0664c0.63672 2.3828 2.7852 4.1133 5.3359 4.1133h0.003906c1.0195 0 1.9648-0.28125 2.7812-0.75781 0.32031 0.91797 0.41797 1.8789 0.24609 2.8359h0.003906c-0.29688 1.6289-1.2891 2.9805-2.6484 3.7617l-0.027343 0.011719c-1.3438 0.77734-2.9922 1.0234-4.7305 1.2695-1.1602 0.14844-2.1484 0.32812-3.1172 0.55469l0.20703-0.042969c-2.5625 0.62891-5.0234 1.8594-7.4141 3.0391-3.0586 1.5117-5.9414 2.9375-8.6133 2.9375h-0.039062c-1.4141 0-2.7227-0.45703-3.7891-1.2227-2.7031-1.8711-2.5703-5.3672-2.2461-7.2852z" fill="#98405b"/>
</g>
</svg>
