<?xml version="1.0" encoding="UTF-8"?>
<svg width="50" height="50" version="1.0" viewBox="0 0 37.5 37.5" xmlns="http://www.w3.org/2000/svg" zoomAndPan="magnify">
<defs>
<clipPath id="a">
<path d="m2.6562 0.35547h32.25v36.652h-32.25z"/>
</clipPath>
</defs>
<g clip-path="url(#a)">
<path d="m14.824 32.57c-0.94141 0.54688-1.1211 0.60938-2.0078 0.92188-0.21484 0.074218-0.53906 0.20312 0.125 0.58203l4.4336 2.6484c0.42578 0.25 0.91406 0.37891 1.3945 0.37891l0.003907 0.003907c0.48828 0 0.96875-0.13281 1.3945-0.37891l13.281-7.7422c0.86328-0.50781 1.3945-1.4453 1.3945-2.4453v-15.477c0-1.0078-0.53125-1.9453-1.3945-2.4453l-13.281-7.75c-0.83594-0.48047-1.9492-0.48047-2.7891 0l-13.266 7.7422c-0.86328 0.5-1.3945 1.4453-1.3945 2.4453v15.477c0 1.0078 0.53125 1.9453 1.3945 2.4453l3.4805 2.0273c1.6797 0.84375 2.2852 0.84375 3.0547 0.84375 2.4922 0 3.9297-1.5234 3.9297-4.1836v-15.285c0-0.21484-0.17578-0.38281-0.38672-0.38281h-1.6836c-0.21484 0-0.38672 0.16406-0.38672 0.38281v15.277c0 1.1836-1.2109 2.3555-3.1875 1.3594l-3.6367-2.1211c-0.12891-0.066406-0.20703-0.21094-0.20703-0.35547v-15.477c0-0.14844 0.078125-0.29688 0.20703-0.37109l13.266-7.7422c0.12109-0.070313 0.28906-0.070313 0.41016 0l13.273 7.7344c0.12891 0.082031 0.20703 0.21875 0.20703 0.37109v15.484c0 0.14063-0.078125 0.28906-0.19922 0.36328l-13.281 7.7422c-0.11328 0.070313-0.28906 0.070313-0.41016 0l-3.4062-2.043c-0.10156-0.0625-0.23047-0.085937-0.33203-0.03125z" fill="#8bbf3d"/>
</g>
<path d="m22.871 24.098c-3.5156 0-4.2852-0.89453-4.543-2.6602-0.03125-0.1875-0.1875-0.32422-0.38281-0.32422h-1.7188c-0.21484 0-0.37891 0.17188-0.37891 0.38281 0 2.2578 1.2148 4.9531 7.0312 4.9531 4.1953-0.007813 6.6133-1.6836 6.6133-4.6016h-0.003907c0-2.8984-1.9414-3.668-6.0156-4.2109-4.1289-0.55469-4.543-0.83594-4.543-1.8086 0-0.80469 0.35156-1.8828 3.4062-1.8828 2.7266 0 3.7344 0.59766 4.1484 2.457 0.035156 0.17188 0.19531 0.30469 0.375 0.30469h1.7266c0.10547 0 0.20703-0.042969 0.28125-0.125 0.070312-0.082031 0.10547-0.1875 0.097656-0.29688-0.26562-3.2031-2.3711-4.6914-6.6289-4.6914-3.7891 0-6.0469 1.6133-6.0469 4.3203 0 2.9336 2.25 3.75 5.8828 4.1094 4.3516 0.42969 4.6875 1.0742 4.6875 1.9414 0.003906 1.4961-1.1914 2.1328-3.9883 2.1328z" fill="#8bbf3d"/>
</svg>
