<?xml version="1.0" encoding="UTF-8"?>
<svg width="50" height="50" version="1.0" viewBox="0 0 37.5 37.5" xmlns="http://www.w3.org/2000/svg" zoomAndPan="magnify">
<defs>
<clipPath id="a">
<path d="m0 0h37.008v37.008h-37.008z"/>
</clipPath>
</defs>
<g clip-path="url(#a)">
<path d="m36.57 17.098-16.172-16.168c-0.92969-0.92969-2.4414-0.92969-3.3711 0l-3.3594 3.3594 4.2617 4.2578c0.98828-0.33203 2.125-0.10938 2.9141 0.67969 0.79297 0.79297 1.0156 1.9375 0.67188 2.9336l4.1055 4.1055c0.99219-0.34375 2.1367-0.12109 2.9336 0.67188 1.1055 1.1094 1.1055 2.9062 0 4.0117-1.1094 1.1094-2.9062 1.1094-4.0156 0-0.83594-0.83203-1.0391-2.0586-0.61719-3.0859l-3.8281-3.8281-0.003906 10.074c0.27344 0.13672 0.52734 0.3125 0.75391 0.53906 1.1055 1.1055 1.1055 2.9023 0 4.0117-1.1094 1.1094-2.9102 1.1094-4.0156 0-1.1094-1.1094-1.1094-2.9062 0-4.0117 0.27344-0.27344 0.58984-0.48047 0.92969-0.62109v-10.168c-0.33984-0.13672-0.65234-0.34375-0.92969-0.62109-0.83984-0.83594-1.043-2.0703-0.61328-3.1016l-4.1953-4.1992-11.09 11.09c-0.92969 0.92969-0.92969 2.4414 0 3.3711l16.172 16.172c0.92969 0.92969 2.4414 0.92969 3.375 0l16.094-16.098c0.92969-0.92969 0.92969-2.4414 0-3.375" fill="#de4b36"/>
</g>
</svg>
