<?xml version="1.0" encoding="UTF-8"?>
<svg width="100" height="100" version="1.0" viewBox="0 0 75 75" xmlns="http://www.w3.org/2000/svg" zoomAndPan="magnify">
<path d="m37.5 0.625c-20.711 0-37.5 16.789-37.5 37.5 0 17.57 12.102 32.273 28.414 36.344-0.17578-0.50781-0.28906-1.0938-0.28906-1.8203v-6.4102h-4.7109c-2.5664 0-4.8477-1.1055-5.9531-3.1523-1.2305-2.2812-1.4414-5.7656-4.4844-7.8945-0.90625-0.71094-0.21875-1.5195 0.82422-1.4102 1.9219 0.54297 3.5156 1.8633 5.0156 3.8203 1.4922 1.957 2.1953 2.4023 4.9883 2.4023 1.3516 0 3.375-0.078125 5.2812-0.37891 1.0273-2.6016 2.7969-5 4.9648-6.1328-12.488-1.2812-18.449-7.4961-18.449-15.93 0-3.6328 1.5469-7.1445 4.1758-10.102-0.86328-2.9375-1.9453-8.9297 0.33203-11.211 5.6172 0 9.0156 3.6445 9.832 4.6289 2.8008-0.96094 5.875-1.5039 9.1055-1.5039 3.2383 0 6.3242 0.54297 9.1328 1.5078 0.80469-0.97656 4.2031-4.6328 9.8359-4.6328 2.2891 2.2852 1.1914 8.3008 0.32031 11.23 2.6094 2.9531 4.1484 6.457 4.1484 10.082 0 8.4297-5.9492 14.637-18.418 15.93 3.4297 1.7891 5.9336 6.8203 5.9336 10.609v8.5469c0 0.32422-0.070312 0.55859-0.10938 0.83594 14.613-5.1211 25.109-18.996 25.109-35.359 0-20.711-16.789-37.5-37.5-37.5z" fill="#ff7e5e"/>
</svg>
