<svg xmlns="http://www.w3.org/2000/svg" xmlns:xlink="http://www.w3.org/1999/xlink" width="50" zoomAndPan="magnify" viewBox="0 0 37.5 37.499999" height="50" preserveAspectRatio="xMidYMid meet" version="1.0"><defs><filter x="0%" y="0%" width="100%" height="100%" id="id1"><feColorMatrix values="0 0 0 0 1 0 0 0 0 1 0 0 0 0 1 0 0 0 1 0" color-interpolation-filters="sRGB"/></filter><clipPath id="id2"><path d="M 0 0 L 37.007812 0 L 37.007812 37.007812 L 0 37.007812 Z M 0 0 " clip-rule="nonzero"/></clipPath><mask id="id3"><g filter="url(#id1)"><rect x="-3.75" width="45" fill="rgb(0%, 0%, 0%)" y="-3.75" height="44.999999" fill-opacity="0.098"/></g></mask><clipPath id="id4"><path d="M 0 0 L 37.007812 0 L 37.007812 37.007812 L 0 37.007812 Z M 0 0 " clip-rule="nonzero"/></clipPath><clipPath id="id5"><rect x="0" width="38" y="0" height="38"/></clipPath></defs><g clip-path="url(#id2)"><path fill="rgb(100%, 100%, 100%)" d="M 0 0 L 37.5 0 L 37.5 45 L 0 45 Z M 0 0 " fill-opacity="1" fill-rule="nonzero"/><path fill="rgb(100%, 100%, 100%)" d="M 0 0 L 37.5 0 L 37.5 37.5 L 0 37.5 Z M 0 0 " fill-opacity="1" fill-rule="nonzero"/><path fill="rgb(100%, 100%, 100%)" d="M 0 0 L 37.5 0 L 37.5 37.5 L 0 37.5 Z M 0 0 " fill-opacity="1" fill-rule="nonzero"/><path fill="rgb(29.019165%, 29.019165%, 30.198669%)" d="M 18.785156 0.25 C 19.390625 0.25 19.996094 0.28125 20.597656 0.339844 C 21.195312 0.398438 21.792969 0.488281 22.386719 0.605469 C 22.980469 0.722656 23.566406 0.867188 24.144531 1.042969 C 24.722656 1.21875 25.289062 1.421875 25.847656 1.652344 C 26.40625 1.882812 26.953125 2.140625 27.488281 2.425781 C 28.019531 2.710938 28.539062 3.023438 29.039062 3.355469 C 29.542969 3.691406 30.027344 4.050781 30.496094 4.433594 C 30.960938 4.820312 31.410156 5.222656 31.835938 5.652344 C 32.265625 6.078125 32.671875 6.527344 33.054688 6.992188 C 33.4375 7.460938 33.796875 7.945312 34.132812 8.445312 C 34.46875 8.949219 34.78125 9.464844 35.066406 10 C 35.347656 10.53125 35.609375 11.078125 35.839844 11.636719 C 36.070312 12.195312 36.273438 12.761719 36.449219 13.339844 C 36.625 13.917969 36.773438 14.503906 36.890625 15.097656 C 37.007812 15.691406 37.097656 16.289062 37.15625 16.890625 C 37.214844 17.492188 37.246094 18.09375 37.246094 18.699219 C 37.246094 19.300781 37.214844 19.90625 37.15625 20.507812 C 37.097656 21.109375 37.007812 21.707031 36.890625 22.296875 C 36.773438 22.890625 36.628906 23.476562 36.453125 24.054688 C 36.277344 24.632812 36.074219 25.203125 35.84375 25.761719 C 35.609375 26.320312 35.351562 26.863281 35.066406 27.398438 C 34.78125 27.929688 34.472656 28.449219 34.136719 28.953125 C 33.800781 29.453125 33.441406 29.9375 33.058594 30.40625 C 32.675781 30.875 32.269531 31.320312 31.84375 31.75 C 31.414062 32.175781 30.96875 32.582031 30.5 32.964844 C 30.035156 33.347656 29.546875 33.707031 29.046875 34.042969 C 28.542969 34.378906 28.027344 34.691406 27.492188 34.976562 C 26.960938 35.261719 26.414062 35.519531 25.855469 35.75 C 25.296875 35.980469 24.730469 36.183594 24.152344 36.359375 C 23.574219 36.535156 22.988281 36.683594 22.394531 36.800781 C 21.800781 36.917969 21.203125 37.007812 20.601562 37.066406 C 20 37.125 19.398438 37.152344 18.792969 37.152344 C 18.191406 37.15625 17.585938 37.125 16.984375 37.066406 C 16.382812 37.007812 15.789062 36.917969 15.195312 36.800781 C 14.601562 36.683594 14.015625 36.535156 13.4375 36.359375 C 12.859375 36.183594 12.292969 35.980469 11.734375 35.75 C 11.175781 35.519531 10.628906 35.261719 10.097656 34.976562 C 9.5625 34.691406 9.046875 34.382812 8.542969 34.046875 C 8.039062 33.710938 7.554688 33.351562 7.089844 32.96875 C 6.621094 32.582031 6.175781 32.179688 5.746094 31.75 C 5.320312 31.324219 4.914062 30.875 4.53125 30.410156 C 4.148438 29.941406 3.789062 29.457031 3.453125 28.953125 C 3.117188 28.453125 2.804688 27.933594 2.523438 27.402344 C 2.238281 26.867188 1.980469 26.324219 1.746094 25.765625 C 1.515625 25.207031 1.3125 24.636719 1.136719 24.058594 C 0.960938 23.480469 0.816406 22.894531 0.699219 22.300781 C 0.578125 21.710938 0.492188 21.113281 0.429688 20.511719 C 0.371094 19.910156 0.34375 19.308594 0.34375 18.703125 C 0.34375 18.097656 0.371094 17.496094 0.429688 16.894531 C 0.488281 16.292969 0.578125 15.695312 0.695312 15.101562 C 0.8125 14.507812 0.960938 13.921875 1.136719 13.34375 C 1.308594 12.765625 1.511719 12.199219 1.746094 11.640625 C 1.976562 11.082031 2.234375 10.535156 2.519531 10.003906 C 2.804688 9.46875 3.113281 8.953125 3.449219 8.449219 C 3.785156 7.945312 4.144531 7.460938 4.527344 6.996094 C 4.910156 6.527344 5.316406 6.078125 5.742188 5.652344 C 6.171875 5.226562 6.617188 4.820312 7.085938 4.4375 C 7.554688 4.054688 8.039062 3.691406 8.539062 3.359375 C 9.042969 3.023438 9.5625 2.710938 10.09375 2.425781 C 10.628906 2.140625 11.171875 1.882812 11.730469 1.652344 C 12.289062 1.421875 12.859375 1.21875 13.4375 1.042969 C 14.015625 0.867188 14.601562 0.722656 15.195312 0.605469 C 15.785156 0.484375 16.382812 0.398438 16.984375 0.339844 C 17.585938 0.28125 18.191406 0.25 18.792969 0.25 Z M 18.785156 0.25 " fill-opacity="1" fill-rule="nonzero"/><path fill="rgb(100%, 100%, 100%)" d="M 18.785156 37.488281 C 18.171875 37.488281 17.558594 37.460938 16.945312 37.398438 C 16.332031 37.339844 15.726562 37.25 15.121094 37.128906 C 14.519531 37.007812 13.921875 36.859375 13.332031 36.679688 C 12.746094 36.503906 12.164062 36.296875 11.597656 36.058594 C 11.027344 35.824219 10.472656 35.5625 9.929688 35.273438 C 9.386719 34.980469 8.859375 34.664062 8.347656 34.324219 C 7.835938 33.980469 7.34375 33.617188 6.867188 33.226562 C 6.394531 32.835938 5.9375 32.421875 5.503906 31.988281 C 5.066406 31.550781 4.65625 31.097656 4.265625 30.621094 C 3.875 30.144531 3.507812 29.652344 3.164062 29.140625 C 2.824219 28.628906 2.507812 28.101562 2.21875 27.558594 C 1.929688 27.015625 1.664062 26.460938 1.429688 25.890625 C 1.195312 25.324219 0.988281 24.746094 0.808594 24.15625 C 0.628906 23.566406 0.480469 22.972656 0.359375 22.367188 C 0.242188 21.765625 0.152344 21.15625 0.0898438 20.542969 C 0.03125 19.933594 0 19.316406 0 18.703125 C 0 18.085938 0.03125 17.472656 0.0898438 16.859375 C 0.152344 16.25 0.242188 15.640625 0.359375 15.039062 C 0.480469 14.433594 0.628906 13.835938 0.808594 13.25 C 0.988281 12.660156 1.195312 12.082031 1.429688 11.511719 C 1.664062 10.945312 1.929688 10.390625 2.21875 9.847656 C 2.507812 9.304688 2.824219 8.777344 3.164062 8.265625 C 3.507812 7.753906 3.875 7.261719 4.265625 6.785156 C 4.65625 6.308594 5.066406 5.851562 5.503906 5.417969 C 5.9375 4.984375 6.394531 4.570312 6.867188 4.179688 C 7.34375 3.789062 7.835938 3.421875 8.347656 3.082031 C 8.859375 2.738281 9.386719 2.425781 9.929688 2.132812 C 10.472656 1.84375 11.027344 1.582031 11.597656 1.34375 C 12.164062 1.109375 12.746094 0.902344 13.332031 0.722656 C 13.921875 0.546875 14.519531 0.398438 15.121094 0.277344 C 15.726562 0.15625 16.332031 0.0664062 16.945312 0.0078125 C 17.558594 -0.0546875 18.171875 -0.0859375 18.785156 -0.0859375 C 19.402344 -0.0859375 20.015625 -0.0546875 20.628906 0.0078125 C 21.242188 0.0664062 21.847656 0.15625 22.453125 0.277344 C 23.054688 0.398438 23.652344 0.546875 24.242188 0.722656 C 24.828125 0.902344 25.40625 1.109375 25.976562 1.34375 C 26.546875 1.582031 27.101562 1.84375 27.644531 2.132812 C 28.1875 2.425781 28.714844 2.738281 29.222656 3.082031 C 29.734375 3.421875 30.230469 3.789062 30.707031 4.179688 C 31.179688 4.570312 31.636719 4.984375 32.070312 5.417969 C 32.507812 5.851562 32.917969 6.308594 33.308594 6.785156 C 33.699219 7.261719 34.066406 7.753906 34.40625 8.265625 C 34.75 8.777344 35.066406 9.304688 35.355469 9.847656 C 35.644531 10.390625 35.910156 10.945312 36.144531 11.511719 C 36.378906 12.082031 36.585938 12.660156 36.765625 13.25 C 36.945312 13.835938 37.09375 14.433594 37.214844 15.039062 C 37.332031 15.640625 37.421875 16.25 37.484375 16.859375 C 37.542969 17.472656 37.574219 18.085938 37.574219 18.703125 C 37.574219 19.316406 37.542969 19.929688 37.480469 20.542969 C 37.421875 21.15625 37.332031 21.761719 37.210938 22.367188 C 37.089844 22.96875 36.941406 23.566406 36.761719 24.152344 C 36.582031 24.742188 36.375 25.320312 36.136719 25.890625 C 35.902344 26.457031 35.640625 27.011719 35.351562 27.554688 C 35.058594 28.097656 34.742188 28.625 34.402344 29.136719 C 34.058594 29.648438 33.695312 30.140625 33.304688 30.617188 C 32.914062 31.089844 32.5 31.546875 32.066406 31.980469 C 31.628906 32.417969 31.175781 32.828125 30.699219 33.21875 C 30.222656 33.609375 29.730469 33.976562 29.21875 34.316406 C 28.707031 34.660156 28.179688 34.976562 27.640625 35.265625 C 27.097656 35.554688 26.542969 35.820312 25.972656 36.054688 C 25.40625 36.289062 24.828125 36.496094 24.238281 36.675781 C 23.648438 36.855469 23.054688 37.003906 22.449219 37.125 C 21.847656 37.246094 21.238281 37.335938 20.628906 37.398438 C 20.015625 37.457031 19.402344 37.488281 18.785156 37.488281 Z M 18.785156 0.589844 C 18.195312 0.589844 17.601562 0.617188 17.011719 0.675781 C 16.421875 0.734375 15.835938 0.820312 15.253906 0.9375 C 14.671875 1.050781 14.097656 1.195312 13.527344 1.367188 C 12.960938 1.539062 12.402344 1.738281 11.855469 1.96875 C 11.304688 2.195312 10.769531 2.449219 10.246094 2.726562 C 9.722656 3.007812 9.214844 3.3125 8.722656 3.640625 C 8.230469 3.972656 7.753906 4.324219 7.292969 4.699219 C 6.835938 5.078125 6.398438 5.472656 5.976562 5.894531 C 5.558594 6.3125 5.160156 6.753906 4.78125 7.210938 C 4.40625 7.671875 4.054688 8.144531 3.722656 8.640625 C 3.394531 9.132812 3.089844 9.640625 2.808594 10.164062 C 2.53125 10.6875 2.277344 11.222656 2.050781 11.769531 C 1.824219 12.320312 1.625 12.878906 1.449219 13.445312 C 1.277344 14.011719 1.136719 14.589844 1.019531 15.167969 C 0.902344 15.75 0.816406 16.339844 0.757812 16.929688 C 0.699219 17.519531 0.671875 18.109375 0.671875 18.703125 C 0.671875 19.296875 0.699219 19.890625 0.757812 20.480469 C 0.816406 21.070312 0.902344 21.65625 1.019531 22.238281 C 1.132812 22.820312 1.277344 23.394531 1.449219 23.964844 C 1.625 24.53125 1.824219 25.089844 2.050781 25.636719 C 2.277344 26.183594 2.53125 26.71875 2.808594 27.242188 C 3.089844 27.765625 3.394531 28.277344 3.722656 28.769531 C 4.054688 29.261719 4.40625 29.738281 4.78125 30.195312 C 5.160156 30.65625 5.558594 31.09375 5.976562 31.515625 C 6.394531 31.933594 6.835938 32.332031 7.292969 32.707031 C 7.753906 33.085938 8.230469 33.4375 8.722656 33.765625 C 9.214844 34.097656 9.722656 34.402344 10.246094 34.679688 C 10.769531 34.960938 11.304688 35.214844 11.855469 35.441406 C 12.402344 35.667969 12.960938 35.867188 13.527344 36.039062 C 14.097656 36.210938 14.671875 36.355469 15.253906 36.472656 C 15.835938 36.585938 16.421875 36.675781 17.011719 36.734375 C 17.601562 36.792969 18.195312 36.820312 18.785156 36.820312 C 19.378906 36.820312 19.972656 36.792969 20.5625 36.734375 C 21.152344 36.675781 21.738281 36.585938 22.320312 36.472656 C 22.902344 36.355469 23.476562 36.210938 24.046875 36.039062 C 24.613281 35.867188 25.171875 35.667969 25.71875 35.441406 C 26.269531 35.214844 26.804688 34.960938 27.328125 34.679688 C 27.851562 34.402344 28.359375 34.097656 28.851562 33.765625 C 29.34375 33.4375 29.820312 33.085938 30.28125 32.707031 C 30.738281 32.332031 31.175781 31.933594 31.597656 31.515625 C 32.015625 31.09375 32.414062 30.65625 32.789062 30.195312 C 33.167969 29.738281 33.519531 29.261719 33.851562 28.769531 C 34.179688 28.273438 34.484375 27.765625 34.765625 27.242188 C 35.042969 26.71875 35.296875 26.183594 35.523438 25.636719 C 35.75 25.085938 35.949219 24.53125 36.121094 23.960938 C 36.296875 23.394531 36.4375 22.820312 36.554688 22.238281 C 36.671875 21.65625 36.757812 21.070312 36.816406 20.480469 C 36.875 19.886719 36.902344 19.296875 36.902344 18.703125 C 36.902344 18.109375 36.871094 17.519531 36.8125 16.925781 C 36.753906 16.335938 36.667969 15.75 36.550781 15.167969 C 36.433594 14.589844 36.289062 14.011719 36.117188 13.445312 C 35.945312 12.878906 35.746094 12.320312 35.519531 11.773438 C 35.292969 11.226562 35.039062 10.691406 34.757812 10.167969 C 34.476562 9.644531 34.171875 9.136719 33.84375 8.644531 C 33.515625 8.148438 33.160156 7.675781 32.785156 7.214844 C 32.40625 6.757812 32.011719 6.316406 31.589844 5.898438 C 31.171875 5.480469 30.734375 5.082031 30.273438 4.707031 C 29.816406 4.328125 29.339844 3.976562 28.847656 3.644531 C 28.355469 3.316406 27.84375 3.011719 27.324219 2.730469 C 26.800781 2.453125 26.265625 2.199219 25.714844 1.972656 C 25.167969 1.742188 24.609375 1.542969 24.042969 1.371094 C 23.476562 1.199219 22.902344 1.054688 22.320312 0.9375 C 21.738281 0.820312 21.152344 0.734375 20.5625 0.675781 C 19.972656 0.617188 19.378906 0.585938 18.785156 0.585938 Z M 18.785156 0.589844 " fill-opacity="1" fill-rule="nonzero"/><g mask="url(#id3)"><g transform="matrix(1, 0, 0, 1, 0, 0)"><g clip-path="url(#id5)"><g clip-path="url(#id4)"><path fill="rgb(100%, 100%, 100%)" d="M 39.183594 19.507812 C 39.335938 19.117188 39.378906 18.714844 39.320312 18.300781 C 39.226562 18.085938 39.183594 17.863281 39.183594 17.628906 L 39.183594 17.09375 C 39.183594 16.621094 39.050781 16.351562 39.050781 15.953125 C 38.964844 15.132812 38.808594 14.328125 38.578125 13.535156 C 37.679688 9.859375 35.890625 6.683594 33.210938 4.007812 C 31.808594 2.597656 30.21875 1.433594 28.449219 0.519531 C 26.878906 -0.203125 25.265625 -0.832031 23.617188 -1.359375 L 22.949219 -1.359375 L 22.949219 -1.492188 L 22.007812 -1.492188 L 22.007812 -1.625 L 20.734375 -1.625 L 20.734375 -1.761719 L 16.839844 -1.761719 L 16.839844 -1.625 L 15.570312 -1.625 L 15.570312 -1.492188 L 14.765625 -1.492188 L 14.765625 -1.359375 L 13.960938 -1.359375 C 12.09375 -0.796875 10.304688 -0.0585938 8.589844 0.859375 C 7.652344 1.402344 6.757812 2.003906 5.90625 2.667969 C 4.960938 3.464844 4.066406 4.316406 3.222656 5.21875 C 2.542969 5.949219 1.960938 6.757812 1.476562 7.632812 C 1.007812 8.4375 0.539062 9.175781 0.132812 9.980469 C 0 10.179688 0 10.449219 -0.136719 10.71875 L -0.402344 11.253906 C -0.539062 11.65625 -0.605469 11.996094 -0.738281 12.394531 C -1.035156 13.179688 -1.257812 13.984375 -1.410156 14.8125 C -1.953125 18.050781 -1.773438 21.246094 -0.875 24.40625 C -0.398438 26.074219 0.273438 27.664062 1.140625 29.167969 C 2.125 30.949219 3.378906 32.515625 4.898438 33.867188 C 6.363281 35.140625 7.949219 36.234375 9.65625 37.15625 C 11.199219 37.894531 12.8125 38.292969 14.421875 38.898438 L 15.226562 38.898438 L 15.226562 39.035156 L 16.5 39.035156 L 16.5 39.167969 L 18.246094 39.167969 L 18.246094 39.300781 L 19.183594 39.300781 L 19.183594 39.167969 L 20.929688 39.167969 L 20.929688 39.03125 L 22.203125 39.03125 L 22.203125 38.898438 L 23.007812 38.898438 C 24.835938 38.304688 26.625 37.609375 28.375 36.816406 C 30.449219 35.792969 32.238281 34.40625 33.742188 32.65625 C 36.226562 29.921875 37.835938 26.746094 38.574219 23.128906 C 38.628906 23 38.671875 22.863281 38.707031 22.726562 L 38.707031 22.457031 C 38.785156 22.242188 38.832031 22.015625 38.84375 21.785156 L 38.84375 21.25 C 38.84375 21.050781 38.976562 20.914062 38.976562 20.714844 C 39.175781 20.332031 39.242188 19.933594 39.183594 19.507812 Z M 39.183594 19.507812 " fill-opacity="1" fill-rule="nonzero"/><path fill="rgb(100%, 100%, 100%)" d="M 18.785156 0.25 C 19.390625 0.25 19.996094 0.28125 20.597656 0.339844 C 21.195312 0.398438 21.792969 0.488281 22.386719 0.605469 C 22.980469 0.722656 23.566406 0.867188 24.144531 1.042969 C 24.722656 1.21875 25.289062 1.421875 25.847656 1.652344 C 26.40625 1.882812 26.953125 2.140625 27.488281 2.425781 C 28.019531 2.710938 28.539062 3.023438 29.039062 3.355469 C 29.542969 3.691406 30.027344 4.050781 30.496094 4.433594 C 30.960938 4.820312 31.410156 5.222656 31.835938 5.652344 C 32.265625 6.078125 32.671875 6.527344 33.054688 6.992188 C 33.4375 7.460938 33.796875 7.945312 34.132812 8.445312 C 34.46875 8.949219 34.78125 9.464844 35.066406 10 C 35.347656 10.53125 35.609375 11.078125 35.839844 11.636719 C 36.070312 12.195312 36.273438 12.761719 36.449219 13.339844 C 36.625 13.917969 36.773438 14.503906 36.890625 15.097656 C 37.007812 15.691406 37.097656 16.289062 37.15625 16.890625 C 37.214844 17.492188 37.246094 18.09375 37.246094 18.699219 C 37.246094 19.300781 37.214844 19.90625 37.15625 20.507812 C 37.097656 21.109375 37.007812 21.707031 36.890625 22.296875 C 36.773438 22.890625 36.628906 23.476562 36.453125 24.054688 C 36.277344 24.632812 36.074219 25.203125 35.84375 25.761719 C 35.609375 26.320312 35.351562 26.863281 35.066406 27.398438 C 34.78125 27.929688 34.472656 28.449219 34.136719 28.953125 C 33.800781 29.453125 33.441406 29.9375 33.058594 30.40625 C 32.675781 30.875 32.269531 31.320312 31.84375 31.75 C 31.414062 32.175781 30.96875 32.582031 30.5 32.964844 C 30.035156 33.347656 29.546875 33.707031 29.046875 34.042969 C 28.542969 34.378906 28.027344 34.691406 27.492188 34.976562 C 26.960938 35.261719 26.414062 35.519531 25.855469 35.75 C 25.296875 35.980469 24.730469 36.183594 24.152344 36.359375 C 23.574219 36.535156 22.988281 36.683594 22.394531 36.800781 C 21.800781 36.917969 21.203125 37.007812 20.601562 37.066406 C 20 37.125 19.398438 37.152344 18.792969 37.152344 C 18.191406 37.15625 17.585938 37.125 16.984375 37.066406 C 16.382812 37.007812 15.789062 36.917969 15.195312 36.800781 C 14.601562 36.683594 14.015625 36.535156 13.4375 36.359375 C 12.859375 36.183594 12.292969 35.980469 11.734375 35.75 C 11.175781 35.519531 10.628906 35.261719 10.097656 34.976562 C 9.5625 34.691406 9.046875 34.382812 8.542969 34.046875 C 8.039062 33.710938 7.554688 33.351562 7.089844 32.96875 C 6.621094 32.582031 6.175781 32.179688 5.746094 31.75 C 5.320312 31.324219 4.914062 30.875 4.53125 30.410156 C 4.148438 29.941406 3.789062 29.457031 3.453125 28.953125 C 3.117188 28.453125 2.804688 27.933594 2.523438 27.402344 C 2.238281 26.867188 1.980469 26.324219 1.746094 25.765625 C 1.515625 25.207031 1.3125 24.636719 1.136719 24.058594 C 0.960938 23.480469 0.816406 22.894531 0.699219 22.300781 C 0.578125 21.710938 0.492188 21.113281 0.429688 20.511719 C 0.371094 19.910156 0.34375 19.308594 0.34375 18.703125 C 0.34375 18.097656 0.371094 17.496094 0.429688 16.894531 C 0.488281 16.292969 0.578125 15.695312 0.695312 15.101562 C 0.8125 14.507812 0.960938 13.921875 1.136719 13.34375 C 1.308594 12.765625 1.511719 12.199219 1.746094 11.640625 C 1.976562 11.082031 2.234375 10.535156 2.519531 10.003906 C 2.804688 9.46875 3.113281 8.953125 3.449219 8.449219 C 3.785156 7.945312 4.144531 7.460938 4.527344 6.996094 C 4.910156 6.527344 5.316406 6.078125 5.742188 5.652344 C 6.171875 5.226562 6.617188 4.820312 7.085938 4.4375 C 7.554688 4.054688 8.039062 3.691406 8.539062 3.359375 C 9.042969 3.023438 9.5625 2.710938 10.09375 2.425781 C 10.628906 2.140625 11.171875 1.882812 11.730469 1.652344 C 12.289062 1.421875 12.859375 1.21875 13.4375 1.042969 C 14.015625 0.867188 14.601562 0.722656 15.195312 0.605469 C 15.785156 0.484375 16.382812 0.398438 16.984375 0.339844 C 17.585938 0.28125 18.191406 0.25 18.792969 0.25 Z M 18.785156 0.25 " fill-opacity="1" fill-rule="nonzero"/><path fill="rgb(100%, 100%, 100%)" d="M 18.785156 37.488281 C 18.171875 37.488281 17.558594 37.460938 16.945312 37.398438 C 16.332031 37.339844 15.726562 37.25 15.121094 37.128906 C 14.519531 37.007812 13.921875 36.859375 13.332031 36.679688 C 12.746094 36.503906 12.164062 36.296875 11.597656 36.058594 C 11.027344 35.824219 10.472656 35.5625 9.929688 35.273438 C 9.386719 34.980469 8.859375 34.664062 8.347656 34.324219 C 7.835938 33.980469 7.34375 33.617188 6.867188 33.226562 C 6.394531 32.835938 5.9375 32.421875 5.503906 31.988281 C 5.066406 31.550781 4.65625 31.097656 4.265625 30.621094 C 3.875 30.144531 3.507812 29.652344 3.164062 29.140625 C 2.824219 28.628906 2.507812 28.101562 2.21875 27.558594 C 1.929688 27.015625 1.664062 26.460938 1.429688 25.890625 C 1.195312 25.324219 0.988281 24.746094 0.808594 24.15625 C 0.628906 23.566406 0.480469 22.972656 0.359375 22.367188 C 0.242188 21.765625 0.152344 21.15625 0.0898438 20.542969 C 0.03125 19.933594 0 19.316406 0 18.703125 C 0 18.085938 0.03125 17.472656 0.0898438 16.859375 C 0.152344 16.25 0.242188 15.640625 0.359375 15.039062 C 0.480469 14.433594 0.628906 13.835938 0.808594 13.25 C 0.988281 12.660156 1.195312 12.082031 1.429688 11.511719 C 1.664062 10.945312 1.929688 10.390625 2.21875 9.847656 C 2.507812 9.304688 2.824219 8.777344 3.164062 8.265625 C 3.507812 7.753906 3.875 7.261719 4.265625 6.785156 C 4.65625 6.308594 5.066406 5.851562 5.503906 5.417969 C 5.9375 4.984375 6.394531 4.570312 6.867188 4.179688 C 7.34375 3.789062 7.835938 3.421875 8.347656 3.082031 C 8.859375 2.738281 9.386719 2.425781 9.929688 2.132812 C 10.472656 1.84375 11.027344 1.582031 11.597656 1.34375 C 12.164062 1.109375 12.746094 0.902344 13.332031 0.722656 C 13.921875 0.546875 14.519531 0.398438 15.121094 0.277344 C 15.726562 0.15625 16.332031 0.0664062 16.945312 0.0078125 C 17.558594 -0.0546875 18.171875 -0.0859375 18.785156 -0.0859375 C 19.402344 -0.0859375 20.015625 -0.0546875 20.628906 0.0078125 C 21.242188 0.0664062 21.847656 0.15625 22.453125 0.277344 C 23.054688 0.398438 23.652344 0.546875 24.242188 0.722656 C 24.828125 0.902344 25.40625 1.109375 25.976562 1.34375 C 26.546875 1.582031 27.101562 1.84375 27.644531 2.132812 C 28.1875 2.425781 28.714844 2.738281 29.222656 3.082031 C 29.734375 3.421875 30.230469 3.789062 30.707031 4.179688 C 31.179688 4.570312 31.636719 4.984375 32.070312 5.417969 C 32.507812 5.851562 32.917969 6.308594 33.308594 6.785156 C 33.699219 7.261719 34.066406 7.753906 34.40625 8.265625 C 34.75 8.777344 35.066406 9.304688 35.355469 9.847656 C 35.644531 10.390625 35.910156 10.945312 36.144531 11.511719 C 36.378906 12.082031 36.585938 12.660156 36.765625 13.25 C 36.945312 13.835938 37.09375 14.433594 37.214844 15.039062 C 37.332031 15.640625 37.421875 16.25 37.484375 16.859375 C 37.542969 17.472656 37.574219 18.085938 37.574219 18.703125 C 37.574219 19.316406 37.542969 19.929688 37.480469 20.542969 C 37.421875 21.15625 37.332031 21.761719 37.210938 22.367188 C 37.089844 22.96875 36.941406 23.566406 36.761719 24.152344 C 36.582031 24.742188 36.375 25.320312 36.136719 25.890625 C 35.902344 26.457031 35.640625 27.011719 35.351562 27.554688 C 35.058594 28.097656 34.742188 28.625 34.402344 29.136719 C 34.058594 29.648438 33.695312 30.140625 33.304688 30.617188 C 32.914062 31.089844 32.5 31.546875 32.066406 31.980469 C 31.628906 32.417969 31.175781 32.828125 30.699219 33.21875 C 30.222656 33.609375 29.730469 33.976562 29.21875 34.316406 C 28.707031 34.660156 28.179688 34.976562 27.640625 35.265625 C 27.097656 35.554688 26.542969 35.820312 25.972656 36.054688 C 25.40625 36.289062 24.828125 36.496094 24.238281 36.675781 C 23.648438 36.855469 23.054688 37.003906 22.449219 37.125 C 21.847656 37.246094 21.238281 37.335938 20.628906 37.398438 C 20.015625 37.457031 19.402344 37.488281 18.785156 37.488281 Z M 18.785156 0.589844 C 18.195312 0.589844 17.601562 0.617188 17.011719 0.675781 C 16.421875 0.734375 15.835938 0.820312 15.253906 0.9375 C 14.671875 1.050781 14.097656 1.195312 13.527344 1.367188 C 12.960938 1.539062 12.402344 1.738281 11.855469 1.96875 C 11.304688 2.195312 10.769531 2.449219 10.246094 2.726562 C 9.722656 3.007812 9.214844 3.3125 8.722656 3.640625 C 8.230469 3.972656 7.753906 4.324219 7.292969 4.699219 C 6.835938 5.078125 6.398438 5.472656 5.976562 5.894531 C 5.558594 6.3125 5.160156 6.753906 4.78125 7.210938 C 4.40625 7.671875 4.054688 8.144531 3.722656 8.640625 C 3.394531 9.132812 3.089844 9.640625 2.808594 10.164062 C 2.53125 10.6875 2.277344 11.222656 2.050781 11.769531 C 1.824219 12.320312 1.625 12.878906 1.449219 13.445312 C 1.277344 14.011719 1.136719 14.589844 1.019531 15.167969 C 0.902344 15.75 0.816406 16.339844 0.757812 16.929688 C 0.699219 17.519531 0.671875 18.109375 0.671875 18.703125 C 0.671875 19.296875 0.699219 19.890625 0.757812 20.480469 C 0.816406 21.070312 0.902344 21.65625 1.019531 22.238281 C 1.132812 22.820312 1.277344 23.394531 1.449219 23.964844 C 1.625 24.53125 1.824219 25.089844 2.050781 25.636719 C 2.277344 26.183594 2.53125 26.71875 2.808594 27.242188 C 3.089844 27.765625 3.394531 28.277344 3.722656 28.769531 C 4.054688 29.261719 4.40625 29.738281 4.78125 30.195312 C 5.160156 30.65625 5.558594 31.09375 5.976562 31.515625 C 6.394531 31.933594 6.835938 32.332031 7.292969 32.707031 C 7.753906 33.085938 8.230469 33.4375 8.722656 33.765625 C 9.214844 34.097656 9.722656 34.402344 10.246094 34.679688 C 10.769531 34.960938 11.304688 35.214844 11.855469 35.441406 C 12.402344 35.667969 12.960938 35.867188 13.527344 36.039062 C 14.097656 36.210938 14.671875 36.355469 15.253906 36.472656 C 15.835938 36.585938 16.421875 36.675781 17.011719 36.734375 C 17.601562 36.792969 18.195312 36.820312 18.785156 36.820312 C 19.378906 36.820312 19.972656 36.792969 20.5625 36.734375 C 21.152344 36.675781 21.738281 36.585938 22.320312 36.472656 C 22.902344 36.355469 23.476562 36.210938 24.046875 36.039062 C 24.613281 35.867188 25.171875 35.667969 25.71875 35.441406 C 26.269531 35.214844 26.804688 34.960938 27.328125 34.679688 C 27.851562 34.402344 28.359375 34.097656 28.851562 33.765625 C 29.34375 33.4375 29.820312 33.085938 30.28125 32.707031 C 30.738281 32.332031 31.175781 31.933594 31.597656 31.515625 C 32.015625 31.09375 32.414062 30.65625 32.789062 30.195312 C 33.167969 29.738281 33.519531 29.261719 33.851562 28.769531 C 34.179688 28.273438 34.484375 27.765625 34.765625 27.242188 C 35.042969 26.71875 35.296875 26.183594 35.523438 25.636719 C 35.75 25.085938 35.949219 24.53125 36.121094 23.960938 C 36.296875 23.394531 36.4375 22.820312 36.554688 22.238281 C 36.671875 21.65625 36.757812 21.070312 36.816406 20.480469 C 36.875 19.886719 36.902344 19.296875 36.902344 18.703125 C 36.902344 18.109375 36.871094 17.519531 36.8125 16.925781 C 36.753906 16.335938 36.667969 15.75 36.550781 15.167969 C 36.433594 14.589844 36.289062 14.011719 36.117188 13.445312 C 35.945312 12.878906 35.746094 12.320312 35.519531 11.773438 C 35.292969 11.226562 35.039062 10.691406 34.757812 10.167969 C 34.476562 9.644531 34.171875 9.136719 33.84375 8.644531 C 33.515625 8.148438 33.160156 7.675781 32.785156 7.214844 C 32.40625 6.757812 32.011719 6.316406 31.589844 5.898438 C 31.171875 5.480469 30.734375 5.082031 30.273438 4.707031 C 29.816406 4.328125 29.339844 3.976562 28.847656 3.644531 C 28.355469 3.316406 27.84375 3.011719 27.324219 2.730469 C 26.800781 2.453125 26.265625 2.199219 25.714844 1.972656 C 25.167969 1.742188 24.609375 1.542969 24.042969 1.371094 C 23.476562 1.199219 22.902344 1.054688 22.320312 0.9375 C 21.738281 0.820312 21.152344 0.734375 20.5625 0.675781 C 19.972656 0.617188 19.378906 0.585938 18.785156 0.585938 Z M 18.785156 0.589844 " fill-opacity="1" fill-rule="nonzero"/></g></g></g></g></g><path fill="rgb(100%, 100%, 100%)" d="M 28.582031 26.820312 C 28.039062 28.722656 27.011719 30.3125 25.496094 31.585938 C 23.816406 32.816406 21.9375 33.464844 19.859375 33.535156 L 19.390625 30.449219 C 20.617188 30.367188 21.757812 30.007812 22.808594 29.375 C 23.097656 29.125 23.363281 28.855469 23.617188 28.570312 L 18.050781 10.71875 L 22.679688 10.71875 L 25.898438 24.074219 L 29.320312 10.71875 L 33.816406 10.71875 Z M 28.582031 26.820312 " fill-opacity="1" fill-rule="nonzero"/><path fill="rgb(100%, 100%, 100%)" d="M 12.414062 10.113281 C 13.40625 10.082031 14.367188 10.242188 15.296875 10.585938 C 16.207031 10.9375 17.035156 11.429688 17.78125 12.0625 L 15.902344 14.609375 C 15.421875 14.257812 14.910156 13.964844 14.359375 13.738281 C 13.839844 13.542969 13.304688 13.453125 12.75 13.46875 C 10.46875 13.46875 9.328125 15.214844 9.328125 18.769531 C 9.191406 20.140625 9.480469 21.417969 10.199219 22.59375 C 10.5 22.988281 10.875 23.289062 11.328125 23.492188 C 11.78125 23.695312 12.253906 23.773438 12.75 23.734375 C 13.28125 23.75 13.796875 23.660156 14.292969 23.464844 C 14.871094 23.210938 15.429688 22.921875 15.96875 22.59375 L 17.847656 25.277344 C 17.109375 25.898438 16.28125 26.371094 15.371094 26.695312 C 14.457031 27.019531 13.515625 27.171875 12.550781 27.15625 C 11.074219 27.191406 9.6875 26.855469 8.390625 26.148438 C 7.1875 25.441406 6.292969 24.453125 5.707031 23.191406 C 5.050781 21.765625 4.738281 20.265625 4.765625 18.695312 C 4.746094 17.125 5.058594 15.628906 5.707031 14.199219 C 6.292969 12.90625 7.1875 11.878906 8.386719 11.121094 C 9.644531 10.449219 10.988281 10.113281 12.414062 10.113281 Z M 12.414062 10.113281 " fill-opacity="1" fill-rule="nonzero"/></svg>