<svg xmlns="http://www.w3.org/2000/svg" xmlns:xlink="http://www.w3.org/1999/xlink" width="75" zoomAndPan="magnify" viewBox="0 0 56.25 37.499999" height="50" preserveAspectRatio="xMidYMid meet" version="1.0"><defs><clipPath id="id1"><path d="M 0.289062 3.699219 L 55.511719 3.699219 L 55.511719 37.007812 L 0.289062 37.007812 Z M 0.289062 3.699219 " clip-rule="nonzero"/></clipPath></defs><g clip-path="url(#id1)"><path fill="rgb(0%, 0%, 0%)" d="M 13.390625 12.386719 L 23.855469 12.386719 L 23.855469 13.214844 L 14.347656 13.214844 L 14.347656 19.441406 L 23.289062 19.441406 L 23.289062 20.269531 L 14.347656 20.269531 L 14.347656 27.109375 L 23.964844 27.109375 L 23.964844 27.9375 L 13.390625 27.9375 Z M 24.792969 12.386719 L 25.90625 12.386719 L 30.835938 19.226562 L 35.871094 12.386719 L 42.722656 3.699219 L 31.464844 19.945312 L 37.265625 27.9375 L 36.109375 27.9375 L 30.835938 20.660156 L 25.535156 27.9375 L 24.402344 27.9375 L 30.246094 19.945312 Z M 37.679688 13.214844 L 37.679688 12.386719 L 49.609375 12.386719 L 49.609375 13.214844 L 44.113281 13.214844 L 44.113281 27.9375 L 43.15625 27.9375 L 43.15625 13.214844 Z M 0.296875 12.386719 L 1.496094 12.386719 L 18.03125 37.003906 L 11.199219 27.9375 L 1.300781 13.5625 L 1.253906 27.9375 L 0.296875 27.9375 Z M 49.511719 26.859375 C 49.316406 26.859375 49.167969 26.707031 49.167969 26.511719 C 49.167969 26.316406 49.316406 26.167969 49.511719 26.167969 C 49.710938 26.167969 49.855469 26.316406 49.855469 26.511719 C 49.855469 26.707031 49.710938 26.859375 49.511719 26.859375 Z M 50.453125 25.949219 L 50.96875 25.949219 C 50.976562 26.222656 51.179688 26.410156 51.476562 26.410156 C 51.808594 26.410156 52 26.210938 52 25.835938 L 52 23.464844 L 52.523438 23.464844 L 52.523438 25.839844 C 52.523438 26.511719 52.128906 26.902344 51.480469 26.902344 C 50.871094 26.902344 50.453125 26.523438 50.453125 25.949219 Z M 53.207031 25.917969 L 53.722656 25.917969 C 53.769531 26.238281 54.082031 26.4375 54.53125 26.4375 C 54.953125 26.4375 55.257812 26.222656 55.257812 25.925781 C 55.257812 25.667969 55.0625 25.515625 54.617188 25.410156 L 54.183594 25.304688 C 53.574219 25.164062 53.296875 24.871094 53.296875 24.378906 C 53.296875 23.78125 53.789062 23.382812 54.523438 23.382812 C 55.207031 23.382812 55.703125 23.78125 55.734375 24.347656 L 55.226562 24.347656 C 55.179688 24.035156 54.90625 23.84375 54.515625 23.84375 C 54.101562 23.84375 53.828125 24.042969 53.828125 24.34375 C 53.828125 24.582031 54.003906 24.71875 54.441406 24.824219 L 54.8125 24.914062 C 55.503906 25.074219 55.789062 25.351562 55.789062 25.855469 C 55.789062 26.5 55.289062 26.902344 54.492188 26.902344 C 53.746094 26.902344 53.242188 26.519531 53.207031 25.917969 Z M 53.207031 25.917969 " fill-opacity="1" fill-rule="nonzero"/></g></svg>