<svg xmlns="http://www.w3.org/2000/svg" xmlns:xlink="http://www.w3.org/1999/xlink" width="50" zoomAndPan="magnify" viewBox="0 0 37.5 37.499999" height="50" preserveAspectRatio="xMidYMid meet" version="1.0"><defs><clipPath id="id1"><path d="M 2.316406 0 L 35.316406 0 L 35.316406 37.007812 L 2.316406 37.007812 Z M 2.316406 0 " clip-rule="nonzero"/></clipPath></defs><g clip-path="url(#id1)"><path fill="rgb(89.408875%, 30.198669%, 14.898682%)" d="M 5.3125 33.667969 L 2.308594 0.109375 L 35.328125 0.109375 L 32.320312 33.664062 L 18.796875 37.394531 Z M 5.3125 33.667969 " fill-opacity="1" fill-rule="nonzero"/></g><path fill="rgb(94.509888%, 39.608765%, 16.079712%)" d="M 29.746094 31.527344 L 32.316406 2.851562 L 18.816406 2.851562 L 18.816406 34.542969 Z M 29.746094 31.527344 " fill-opacity="1" fill-rule="nonzero"/><path fill="rgb(92.158508%, 92.158508%, 92.158508%)" d="M 18.804688 6.96875 L 8.453125 6.96875 L 9.566406 19.414062 L 18.816406 19.414062 L 18.816406 15.296875 L 13.347656 15.296875 L 12.96875 11.082031 L 18.816406 11.082031 L 18.816406 6.96875 Z M 18.816406 25.972656 L 18.800781 25.980469 L 14.195312 24.742188 L 13.90625 21.460938 L 9.753906 21.460938 L 10.332031 27.921875 L 18.800781 30.25 L 18.816406 30.246094 Z M 18.816406 25.972656 " fill-opacity="1" fill-rule="nonzero"/><path fill="rgb(100%, 100%, 100%)" d="M 18.804688 19.414062 L 23.894531 19.414062 L 23.425781 24.75 L 18.816406 25.988281 L 18.816406 30.273438 L 27.289062 27.933594 L 28.425781 15.296875 L 18.816406 15.296875 Z M 29.058594 8.070312 L 29.15625 6.96875 L 18.800781 6.96875 L 18.800781 11.082031 L 28.785156 11.082031 L 28.867188 10.15625 Z M 29.058594 8.070312 " fill-opacity="1" fill-rule="nonzero"/></svg>