<?xml version="1.0" encoding="UTF-8"?>
<svg width="100" height="100" version="1.0" viewBox="0 0 75 75" xmlns="http://www.w3.org/2000/svg" zoomAndPan="magnify">
<defs>
<clipPath id="a">
<path d="m0 6h75v61.297h-75z"/>
</clipPath>
</defs>
<g clip-path="url(#a)">
<path d="m67.254 21.773c0.042969 0.65625 0.042969 1.3164 0.042969 1.9766 0 20.223-15.441 43.539-43.68 43.539v-0.011718c-8.3398 0.015625-16.508-2.3672-23.531-6.8555 1.2148 0.14453 2.4336 0.21484 3.6563 0.21875 6.9102 0.007813 13.625-2.3047 19.066-6.5625-6.5703-0.125-12.332-4.3945-14.344-10.629 2.3008 0.44531 4.6719 0.35156 6.9297-0.26172-7.1602-1.4453-12.312-7.7148-12.312-15v-0.19531c2.1328 1.1836 4.5234 1.8438 6.9648 1.9141-6.7422-4.4883-8.8203-13.434-4.75-20.43 7.7969 9.5625 19.293 15.375 31.641 15.988-1.2383-5.3164 0.45312-10.883 4.4414-14.621 6.1836-5.793 15.906-5.4961 21.719 0.66406 3.4375-0.67578 6.7344-1.9336 9.75-3.7148-1.1484 3.543-3.5469 6.5508-6.75 8.4609 3.043-0.35547 6.0156-1.168 8.8164-2.4062-2.0625 3.0781-4.6602 5.7617-7.6602 7.9258z" fill="#ff7e5e"/>
</g>
</svg>
