<?xml version="1.0" encoding="UTF-8"?>
<svg width="50" height="50" version="1.0" viewBox="0 0 37.5 37.5" xmlns="http://www.w3.org/2000/svg" zoomAndPan="magnify">
<defs>
<clipPath id="a">
<path d="m0 6.0703h37.008v24.75h-37.008z"/>
</clipPath>
</defs>
<g clip-path="url(#a)">
<path d="m19.551 14.113h3.8164v3.8633h1.9297c0.89062 0 1.8047-0.15625 2.6523-0.4375 0.41406-0.14062 0.87891-0.33594 1.2852-0.57812-0.53516-0.69531-0.8125-1.5742-0.89453-2.4414-0.10938-1.1797 0.13281-2.7148 0.9375-3.6406l0.40234-0.45703 0.47656 0.37891c1.2031 0.95703 2.2148 2.2969 2.3906 3.8203 1.4492-0.42188 3.1523-0.32031 4.4297 0.41016l0.52344 0.29688-0.27734 0.53516c-1.0781 2.0898-3.3359 2.7344-5.543 2.6211-3.3047 8.1484-10.496 12.008-19.215 12.008-4.5039 0-8.6406-1.668-10.992-5.6289l-0.039062-0.0625-0.34375-0.69141c-0.79688-1.7422-1.0586-3.6523-0.88281-5.5586l0.054688-0.57422h3.2656v-3.8633h3.8125v-3.7773h7.6328v-3.7812h4.5781z" fill="#364548"/>
</g>
<path d="m31.914 15.543c0.25391-1.9688-1.2344-3.5156-2.1562-4.25-1.0625 1.2188-1.2305 4.4102 0.44141 5.7539-0.93359 0.82031-2.8945 1.5625-4.9023 1.5625h-24.453c-0.19531 2.0781 0.17188 3.9883 1.0117 5.625l0.28125 0.50781c0.17578 0.29297 0.36719 0.58203 0.57422 0.85547 1.0039 0.0625 1.9336 0.085938 2.7812 0.066406 1.6641-0.035156 3.0273-0.23047 4.0547-0.58594 0.15625-0.046875 0.32031 0.039063 0.36719 0.19141 0.046876 0.14844-0.03125 0.30469-0.17578 0.35938-0.13672 0.046875-0.27734 0.089844-0.42578 0.13281-0.8125 0.23047-1.6836 0.38281-2.8047 0.45312 0.066407 0-0.070312 0.007812-0.070312 0.007812-0.039062 0.003906-0.085938 0.007813-0.125 0.007813-0.44141 0.027343-0.91797 0.03125-1.4062 0.03125-0.53516 0-1.0586-0.007813-1.6445-0.039063l-0.015625 0.007813c2.0352 2.2695 5.2227 3.6289 9.2148 3.6289 8.4492 0 15.617-3.7109 18.793-12.043 2.25 0.23047 4.418-0.33984 5.4023-2.2461-1.5664-0.89062-3.582-0.60547-4.7422-0.027343z" fill="#21a0c7"/>
<path d="m31.914 15.543c0.25391-1.9688-1.2344-3.5156-2.1562-4.25-1.0625 1.2188-1.2305 4.4102 0.44141 5.7539-0.93359 0.82031-2.8945 1.5625-4.9023 1.5625h-23.008c-0.097656 3.1797 1.0938 5.5938 3.2031 7.0547 1.6641-0.035156 3.0273-0.23047 4.0547-0.58594 0.15625-0.046875 0.32031 0.039063 0.36719 0.19141 0.046876 0.14844-0.03125 0.30469-0.17578 0.35938-0.13672 0.046875-0.27734 0.089844-0.42578 0.13281-0.8125 0.23047-1.7578 0.40234-2.8789 0.46875l-0.027344-0.023438c2.875 1.4609 7.0469 1.457 11.824-0.36328 5.3633-2.043 10.352-5.9297 13.832-10.375-0.050781 0.027344-0.10156 0.050781-0.14844 0.074219z" fill="#37b0d9"/>
<path d="m0.88672 21.133c0.15234 1.1133 0.48438 2.1523 0.96875 3.1016l0.28125 0.50391c0.17578 0.29688 0.36719 0.58203 0.57422 0.85938 1.0039 0.0625 1.9336 0.085938 2.7812 0.066406 1.6641-0.039062 3.0273-0.23047 4.0547-0.58594 0.15625-0.046875 0.32031 0.039063 0.36719 0.19141 0.046876 0.14453-0.03125 0.30469-0.17578 0.35547-0.13672 0.050781-0.27734 0.09375-0.42578 0.13281-0.8125 0.23047-1.7539 0.39453-2.875 0.46484-0.039062 0.003906-0.10547 0.003906-0.14453 0.003906-0.44141 0.023438-0.91406 0.039063-1.4023 0.039063-0.53516 0-1.0781-0.011719-1.6641-0.039063 2.0352 2.2695 5.2422 3.6328 9.2344 3.6328 7.2383 0 13.531-2.7188 17.184-8.7305h-28.758z" fill="#1b81a5"/>
<path d="m2.5117 21.133c0.43359 1.9531 1.4727 3.4883 2.9805 4.5312 1.668-0.039062 3.0273-0.23047 4.0586-0.58594 0.15234-0.046875 0.31641 0.039063 0.36719 0.19141 0.046875 0.14453-0.03125 0.30469-0.17578 0.35547-0.13672 0.050781-0.28125 0.09375-0.42969 0.13281-0.80859 0.23047-1.7695 0.39453-2.8945 0.46484 2.875 1.4609 7.0352 1.4375 11.816-0.37891 2.8906-1.1016 5.6758-2.7422 8.1719-4.7148h-23.895z" fill="#1c90b4"/>
<path d="m4.1641 14.746h3.3047v3.2734h-3.3047zm0.27344 0.26953h0.26172v2.7305h-0.26172zm0.49219 0h0.26953v2.7305h-0.26953zm0.5 0h0.26953v2.7305h-0.26953zm0.5 0h0.26953v2.7305h-0.26953zm0.5 0h0.27344v2.7305h-0.27344zm0.50391 0h0.26172v2.7305h-0.26172zm1.043-4.0508h3.3086v3.2734h-3.3086zm0.27734 0.27344h0.26172v2.7305h-0.26172zm0.48828 0h0.27344v2.7305h-0.27344zm0.50391 0h0.26953v2.7305h-0.26953zm0.5 0h0.26953v2.7305h-0.26953zm0.5 0h0.26953v2.7305h-0.26953zm0.5 0h0.26172v2.7305h-0.26172z" fill="#23a2c2"/>
<path d="m7.9766 14.746h3.3086v3.2734h-3.3086zm0.27734 0.26953h0.26172v2.7305h-0.26172zm0.48828 0h0.27344v2.7305h-0.27344zm0.50391 0h0.26953v2.7305h-0.26953zm0.5 0h0.26953v2.7305h-0.26953zm0.5 0h0.26953v2.7305h-0.26953zm0.5 0h0.26172v2.7305h-0.26172z" fill="#33bade"/>
<path d="m11.793 14.746h3.3047v3.2734h-3.3047zm0.27734 0.26953h0.25781v2.7305h-0.25781zm0.48828 0h0.26953v2.7305h-0.26953zm0.5 0h0.27344v2.7305h-0.27344zm0.50391 0h0.26953v2.7305h-0.26953zm0.5 0h0.27344v2.7305h-0.27344zm0.5 0h0.26172v2.7305h-0.26172z" fill="#23a2c2"/>
<path d="m11.793 10.965h3.3047v3.2734h-3.3047zm0.27734 0.27344h0.25781v2.7305h-0.25781zm0.48828 0h0.26953v2.7305h-0.26953zm0.5 0h0.27344v2.7305h-0.27344zm0.50391 0h0.26953v2.7305h-0.26953zm0.5 0h0.27344v2.7305h-0.27344zm0.5 0h0.26172v2.7305h-0.26172zm1.0469 3.5078h3.3047v3.2734h-3.3047zm0.27344 0.26953h0.26172v2.7305h-0.26172zm0.49219 0h0.26953v2.7305h-0.26953zm0.5 0h0.26953v2.7305h-0.26953zm0.5 0h0.27344v2.7305h-0.27344zm0.50391 0h0.26953v2.7305h-0.26953zm0.5 0h0.26172v2.7305h-0.26172z" fill="#33bade"/>
<path d="m15.609 10.965h3.3047v3.2734h-3.3047zm0.27344 0.27344h0.26172v2.7305h-0.26172zm0.49219 0h0.26953v2.7305h-0.26953zm0.5 0h0.26953v2.7305h-0.26953zm0.5 0h0.27344v2.7305h-0.27344zm0.50391 0h0.26953v2.7305h-0.26953zm0.5 0h0.26172v2.7305h-0.26172z" fill="#23a2c2"/>
<path d="m15.609 7.1836h3.3047v3.2773h-3.3047zm0.27344 0.27344h0.26172v2.7305h-0.26172zm0.49219 0h0.26953v2.7305h-0.26953zm0.5 0h0.26953v2.7305h-0.26953zm0.5 0h0.27344v2.7305h-0.27344zm0.50391 0h0.26953v2.7305h-0.26953zm0.5 0h0.26172v2.7305h-0.26172z" fill="#33bade"/>
<path d="m19.422 14.746h3.3086v3.2734h-3.3086zm0.27734 0.26953h0.26172v2.7305h-0.26172zm0.48828 0h0.27344v2.7305h-0.27344zm0.50391 0h0.26953v2.7305h-0.26953zm0.5 0h0.26953v2.7305h-0.26953zm0.5 0h0.27344v2.7305h-0.27344zm0.50391 0h0.25781v2.7305h-0.25781z" fill="#23a2c2"/>
<path d="m11.078 23.332c0.50391-0.007812 0.91797 0.39062 0.92188 0.89062 0.007812 0.5-0.39453 0.91016-0.89844 0.91797h-0.027343c-0.50391-0.007813-0.90625-0.41797-0.89844-0.91797 0.007813-0.49219 0.40625-0.88672 0.90234-0.89062z" fill="#d3ecec"/>
<path d="m11.078 23.586c0.082031 0 0.16406 0.015624 0.23438 0.042968-0.125 0.074219-0.16797 0.23438-0.09375 0.36328 0.046875 0.082031 0.13281 0.12891 0.23047 0.12891 0.097656 0 0.1875-0.054688 0.23047-0.13672 0.14062 0.33203-0.019532 0.71094-0.35156 0.84766s-0.71484-0.019531-0.85547-0.35156c-0.13672-0.32812 0.019532-0.70703 0.35547-0.84375 0.078125-0.03125 0.16406-0.050781 0.25-0.050781z" fill="#364548"/>
<path d="m13.5 29.844c-2.2578-1.0625-3.4961-2.5078-4.1875-4.082-0.83984 0.23828-1.8477 0.38672-3.0195 0.45312-0.44141 0.023437-0.90625 0.039062-1.3945 0.039062-0.55859 0-1.1523-0.019531-1.7734-0.050781 2.0703 2.0508 4.6211 3.6289 9.3398 3.6602 0.34766 0 0.69141-0.007812 1.0352-0.019531z" fill="#bdd9d6"/>
<path d="m10.152 27.215c-0.3125-0.41797-0.61719-0.94531-0.83984-1.4531-0.83984 0.23828-1.8477 0.39062-3.0195 0.45312 0.80469 0.43359 1.957 0.83594 3.8594 1z" fill="#d3ecec"/>
</svg>
