<svg xmlns="http://www.w3.org/2000/svg" xmlns:xlink="http://www.w3.org/1999/xlink" width="50" zoomAndPan="magnify" viewBox="0 0 37.5 37.499999" height="50" preserveAspectRatio="xMidYMid meet" version="1.0"><defs><g><g id="id1"/></g><clipPath id="id2"><path d="M 0 0 L 37.007812 0 L 37.007812 37.007812 L 0 37.007812 Z M 0 0 " clip-rule="nonzero"/></clipPath></defs><g clip-path="url(#id2)"><path fill="rgb(100%, 100%, 100%)" d="M 0 0 L 37.5 0 L 37.5 45 L 0 45 Z M 0 0 " fill-opacity="1" fill-rule="nonzero"/><path fill="rgb(100%, 100%, 100%)" d="M 0 0 L 37.5 0 L 37.5 37.5 L 0 37.5 Z M 0 0 " fill-opacity="1" fill-rule="nonzero"/><path fill="rgb(100%, 100%, 100%)" d="M 0 0 L 37.5 0 L 37.5 37.5 L 0 37.5 Z M 0 0 " fill-opacity="1" fill-rule="nonzero"/><path fill="rgb(19.60907%, 19.60907%, 19.60907%)" d="M 18.75 0.375 C 8.601562 0.375 0.375 8.601562 0.375 18.75 C 0.375 28.898438 8.601562 37.125 18.75 37.125 C 28.898438 37.125 37.125 28.898438 37.125 18.75 C 37.125 8.601562 28.898438 0.375 18.75 0.375 " fill-opacity="1" fill-rule="nonzero"/></g><g fill="rgb(100%, 100%, 100%)" fill-opacity="1"><g transform="translate(2.645329, 25.914195)"><g><path d="M 8.6875 0.375 C 7.625 0.375 6.625 0.175781 5.6875 -0.21875 C 4.757812 -0.625 3.945312 -1.175781 3.25 -1.875 C 2.5625 -2.570312 2.015625 -3.390625 1.609375 -4.328125 C 1.210938 -5.273438 1.015625 -6.28125 1.015625 -7.34375 C 1.015625 -8.40625 1.203125 -9.40625 1.578125 -10.34375 C 1.960938 -11.289062 2.472656 -12.113281 3.109375 -12.8125 C 3.753906 -13.507812 4.507812 -14.054688 5.375 -14.453125 C 6.238281 -14.847656 7.160156 -15.046875 8.140625 -15.046875 C 9.140625 -15.046875 10.066406 -14.867188 10.921875 -14.515625 C 11.773438 -14.171875 12.507812 -13.628906 13.125 -12.890625 C 13.75 -12.160156 14.234375 -11.226562 14.578125 -10.09375 C 14.929688 -8.957031 15.109375 -7.597656 15.109375 -6.015625 L 4.171875 -6.015625 C 4.316406 -5.484375 4.539062 -4.988281 4.84375 -4.53125 C 5.15625 -4.070312 5.519531 -3.671875 5.9375 -3.328125 C 6.363281 -2.992188 6.835938 -2.734375 7.359375 -2.546875 C 7.878906 -2.359375 8.425781 -2.265625 9 -2.265625 C 9.78125 -2.265625 10.503906 -2.410156 11.171875 -2.703125 C 11.835938 -2.992188 12.40625 -3.375 12.875 -3.84375 L 14.71875 -2 C 14 -1.28125 13.117188 -0.703125 12.078125 -0.265625 C 11.046875 0.160156 9.914062 0.375 8.6875 0.375 Z M 8.140625 -12.34375 C 7.671875 -12.34375 7.222656 -12.25 6.796875 -12.0625 C 6.378906 -11.882812 5.988281 -11.628906 5.625 -11.296875 C 5.269531 -10.972656 4.960938 -10.585938 4.703125 -10.140625 C 4.453125 -9.691406 4.265625 -9.195312 4.140625 -8.65625 L 11.921875 -8.65625 C 11.878906 -9.15625 11.765625 -9.628906 11.578125 -10.078125 C 11.390625 -10.523438 11.132812 -10.914062 10.8125 -11.25 C 10.488281 -11.59375 10.101562 -11.859375 9.65625 -12.046875 C 9.21875 -12.242188 8.710938 -12.34375 8.140625 -12.34375 Z M 8.140625 -12.34375 "/></g></g></g><g fill="rgb(100%, 100%, 100%)" fill-opacity="1"><g transform="translate(18.926658, 25.914195)"><g><path d="M 15.421875 0 L 11.796875 0 L 8.015625 -5.15625 L 4.203125 0 L 0.578125 0 L 6.203125 -7.625 L 0.984375 -14.71875 L 4.609375 -14.71875 L 8.015625 -10.109375 L 11.390625 -14.71875 L 15.015625 -14.71875 L 9.828125 -7.625 Z M 15.421875 0 "/></g></g></g></svg>