<?xml version="1.0" encoding="UTF-8"?>
<svg width="50" height="50" version="1.0" viewBox="0 0 37.5 37.5" xmlns="http://www.w3.org/2000/svg" zoomAndPan="magnify">
<defs>
<clipPath id="a">
<path d="m0.375 0.75h36.633v36.258h-36.633z"/>
</clipPath>
</defs>
<g clip-path="url(#a)">
<path d="m18.742 0.78125c10.152 0 18.383 8.2266 18.383 18.379s-8.2305 18.383-18.383 18.383c-10.152 0-18.383-8.2266-18.383-18.383 0-10.152 8.2305-18.379 18.383-18.379z" fill="#f06191" fill-rule="evenodd"/>
</g>
<path d="m30.273 8.6484c-0.83203-3.2656-6.2461-4.3398-11.367-2.5195-3.0508 1.082-6.3516 2.7852-8.7266 5.0039-2.8203 2.6406-3.2695 4.9375-3.0859 5.8945 0.65625 3.3867 5.2969 5.6016 7.2031 7.2461v0.007812c-0.5625 0.27734-4.6797 2.3633-5.6406 4.4922-1.0195 2.2461 0.16016 3.8594 0.94141 4.0781 2.418 0.67188 4.8984-0.53516 6.2305-2.5273 1.2852-1.918 1.1797-4.3945 0.62109-5.6289 0.76953-0.20312 1.6719-0.29297 2.8125-0.16016 3.2266 0.375 3.8594 2.3906 3.7344 3.2305-0.11719 0.84375-0.79688 1.3086-1.0234 1.4492-0.22656 0.13672-0.29297 0.1875-0.27344 0.28906 0.027343 0.15234 0.12891 0.14844 0.32422 0.11328 0.26562-0.042969 1.6914-0.68359 1.7539-2.2383 0.078125-1.9766-1.8125-4.1836-5.1641-4.1289-1.3789 0.023438-2.2461 0.15625-2.875 0.39062-0.046875-0.054687-0.09375-0.10547-0.14062-0.15625-2.0742-2.2109-5.9023-3.7773-5.7422-6.7461 0.0625-1.082 0.4375-3.9258 7.3594-7.375 5.6719-2.8281 10.215-2.0508 11-0.32422 1.1172 2.4609-2.4297 7.0391-8.3203 7.6992-2.2422 0.25-3.4258-0.61719-3.7188-0.94141-0.30859-0.34375-0.35547-0.35938-0.47266-0.29297-0.1875 0.10547-0.066406 0.40625 0 0.58594 0.17969 0.45703 0.89844 1.2695 2.1289 1.6719 1.082 0.35547 3.7188 0.55078 6.9062-0.68359 3.5664-1.3789 6.3555-5.2227 5.5352-8.4297zm-15.184 16.637c0.26562 0.98828 0.23828 1.9102-0.039063 2.7461-0.027343 0.09375-0.0625 0.18359-0.10156 0.27734-0.035157 0.089844-0.074219 0.17969-0.11719 0.26953-0.21484 0.44141-0.5 0.85547-0.84766 1.2383-1.0703 1.1641-2.5625 1.6055-3.2031 1.2344-0.6875-0.40234-0.34375-2.043 0.89453-3.3555 1.332-1.4062 3.25-2.3125 3.25-2.3125l-0.003906-0.003906c0.054687-0.03125 0.11328-0.0625 0.16797-0.09375z" fill="#fff"/>
</svg>
