<?xml version="1.0" encoding="UTF-8"?>
<svg width="50" height="50" version="1.0" viewBox="0 0 37.5 37.5" xmlns="http://www.w3.org/2000/svg" zoomAndPan="magnify">
<defs>
<clipPath id="a">
<path d="m0.35938 2h36.648v33h-36.648z"/>
</clipPath>
</defs>
<g clip-path="url(#a)">
<path d="m30.547 12.906c-0.37891-0.12891-0.77344-0.25391-1.1797-0.37109 0.066406-0.26953 0.12891-0.53516 0.18359-0.79688 0.89453-4.3047 0.30859-7.7734-1.6836-8.9141-1.9141-1.0977-5.043 0.046875-8.2031 2.7734-0.30469 0.26562-0.60937 0.54297-0.91406 0.83203-0.20312-0.19141-0.40625-0.37891-0.60938-0.55469-3.3086-2.918-6.6289-4.1484-8.625-3.0039-1.9102 1.0977-2.4766 4.3594-1.6719 8.4375 0.078125 0.39453 0.16797 0.79688 0.27344 1.207-0.47266 0.13281-0.92578 0.27344-1.3594 0.42188-3.8828 1.3438-6.3633 3.4492-6.3633 5.6328 0 2.2539 2.6641 4.5195 6.707 5.8906 0.32031 0.10937 0.64844 0.21094 0.99219 0.30859-0.10938 0.44141-0.20703 0.875-0.28906 1.2969-0.76563 4.0117-0.16797 7.1914 1.7383 8.2852 1.9688 1.125 5.2734-0.03125 8.4922-2.8242 0.25391-0.21875 0.50781-0.45312 0.76562-0.69922 0.33203 0.31641 0.66406 0.61719 0.99219 0.89844 3.1172 2.6602 6.1953 3.7344 8.0977 2.6406 1.9688-1.1289 2.6094-4.5508 1.7773-8.7109-0.0625-0.31641-0.13672-0.64062-0.21875-0.97266 0.23047-0.066406 0.45703-0.13672 0.67969-0.21094 4.207-1.3828 6.9414-3.6172 6.9414-5.9023 0-2.1914-2.5625-4.3125-6.5234-5.6641zm-0.91016 10.09c-0.19922 0.066406-0.40625 0.13281-0.61719 0.19141-0.46094-1.457-1.0898-3.0078-1.8555-4.6094 0.73047-1.5625 1.332-3.0938 1.7852-4.543 0.375 0.10938 0.73828 0.22266 1.0898 0.33984 3.3945 1.1602 5.4648 2.875 5.4648 4.1953 0 1.4062-2.2383 3.2344-5.8672 4.4258zm-1.5078 2.9648c0.37109 1.8398 0.42188 3.5 0.17578 4.8008-0.21484 1.168-0.65625 1.9492-1.1992 2.2617-1.1562 0.66406-3.625-0.19922-6.293-2.4766-0.30469-0.26172-0.61328-0.53906-0.92188-0.83594 1.0352-1.1211 2.0664-2.4258 3.0742-3.8711 1.7734-0.15625 3.4492-0.41406 4.9688-0.76172 0.074218 0.30078 0.14062 0.59375 0.19531 0.88281zm-15.23 6.9453c-1.1289 0.39844-2.0273 0.41016-2.5703 0.097656-1.1562-0.66406-1.6406-3.2188-0.98438-6.6484 0.078125-0.39062 0.16406-0.79297 0.26953-1.207 1.5 0.33203 3.1641 0.56641 4.9414 0.71094 1.0156 1.418 2.0781 2.7188 3.1484 3.8594-0.23438 0.22266-0.46875 0.4375-0.69922 0.63672-1.4219 1.2383-2.8477 2.1133-4.1055 2.5508zm-5.2891-9.918c-1.7891-0.60547-3.2656-1.3945-4.2773-2.2539-0.91016-0.77344-1.3711-1.5391-1.3711-2.1641 0-1.3242 1.9922-3.0156 5.3125-4.1641 0.40234-0.14062 0.82422-0.26953 1.2617-0.39453 0.46094 1.4805 1.0625 3.0312 1.7891 4.5977-0.73438 1.5898-1.3477 3.1602-1.8086 4.6602-0.3125-0.089843-0.61719-0.18359-0.90625-0.28125zm1.7734-11.977c-0.69141-3.4961-0.23047-6.1328 0.91797-6.7969 1.2305-0.70312 3.9414 0.30078 6.8008 2.8203 0.18359 0.16016 0.36719 0.33203 0.55078 0.50391-1.0664 1.1367-2.1172 2.4297-3.125 3.8359-1.7227 0.16016-3.375 0.41406-4.8945 0.75781-0.09375-0.38281-0.17969-0.75781-0.25-1.1211zm15.816 3.875c-0.35938-0.62109-0.73438-1.2305-1.1133-1.8203 1.1719 0.14844 2.293 0.34375 3.3438 0.58203-0.31641 1.0039-0.70703 2.0547-1.1719 3.1328-0.33203-0.62891-0.6875-1.2578-1.0586-1.8945zm-6.4492-6.2344c0.72266 0.77734 1.4453 1.6445 2.1602 2.5859-0.71875-0.035156-1.4453-0.050781-2.1758-0.050781-0.72656 0-1.4453 0.015625-2.1602 0.046875 0.71094-0.92969 1.4414-1.7969 2.1758-2.582zm-6.4922 6.2461c-0.36328 0.62109-0.70703 1.25-1.0352 1.8828-0.45703-1.0742-0.84766-2.1328-1.1641-3.1523 1.043-0.23047 2.1602-0.42188 3.3242-0.56641-0.38672 0.59766-0.76172 1.2109-1.125 1.8359zm1.1562 9.2891c-1.1992-0.13281-2.332-0.3125-3.3789-0.53906 0.32422-1.0391 0.72266-2.1133 1.1875-3.2109 0.32812 0.62891 0.67578 1.2578 1.043 1.8828 0.37109 0.63672 0.75391 1.2578 1.1484 1.8672zm5.3789 4.4102c-0.74219-0.79297-1.4844-1.6719-2.207-2.6172 0.70312 0.027343 1.418 0.039062 2.1484 0.039062 0.74609 0 1.4844-0.015625 2.2109-0.046875-0.71094 0.96094-1.4336 1.8438-2.1523 2.625zm7.4766-8.2188c0.49219 1.1094 0.90625 2.1836 1.2344 3.2031-1.0625 0.24219-2.2109 0.43359-3.4219 0.57812 0.38281-0.59766 0.75781-1.2148 1.125-1.8516 0.375-0.64453 0.73047-1.2852 1.0625-1.9297zm-2.418 1.1523c-0.57422 0.98828-1.1641 1.9297-1.7617 2.8164-1.0859 0.078125-2.2109 0.11719-3.3555 0.11719s-2.2539-0.035156-3.3242-0.10547c-0.62109-0.89844-1.2227-1.8438-1.7891-2.8203-0.57031-0.97266-1.0938-1.9531-1.5664-2.9297 0.47266-0.98047 0.99609-1.9648 1.5586-2.9336 0.56641-0.97656 1.1641-1.9141 1.7812-2.8125 1.0898-0.082031 2.207-0.12109 3.3398-0.12109s2.2539 0.042968 3.3438 0.125c0.60547 0.88672 1.1992 1.8242 1.7656 2.7969 0.57812 0.98828 1.1055 1.9648 1.582 2.9219-0.47656 0.97266-1.0039 1.9609-1.5742 2.9453zm3.2305-17.363c1.2305 0.70312 1.707 3.5391 0.93359 7.2539-0.046875 0.23828-0.10547 0.48047-0.16406 0.72656-1.5234-0.35156-3.1719-0.60938-4.9023-0.76953-1.0078-1.4258-2.0547-2.7188-3.1016-3.8398 0.28125-0.26953 0.5625-0.52734 0.84375-0.76953 2.707-2.3359 5.2383-3.2578 6.3906-2.6016zm-8.3477 11.152c1.8047 0 3.2734 1.4531 3.2734 3.25 0 1.793-1.4688 3.25-3.2734 3.25-1.8086 0-3.2773-1.457-3.2773-3.25 0-1.7969 1.4688-3.25 3.2773-3.25z" fill="#00d8ff"/>
</g>
</svg>
