<?xml version="1.0" encoding="UTF-8"?>
<svg width="1500" height="1500" version="1.0" viewBox="0 0 1125 1125" xmlns="http://www.w3.org/2000/svg" zoomAndPan="magnify">
<defs/>
<g fill="#fff">
<g transform="translate(2.5e-5 972.46)">
<path d="m558.42-764.96h-52.59c-44.941 0-57.371 0-78.41 34.422-10.516 17.211-77.453 129.09-80.32 133.87-3.8242 5.7383-1.9141 14.344 4.7812 18.168 5.7383 3.8242 14.344 0.95703 18.168-4.7812 0.95703-0.95312 69.801-116.66 80.32-132.91 12.43-21.992 12.43-21.039 54.504-21.039h40.16v710.46h-114.74l-0.95703-247.66 0.95703-16.258c0-55.457 0-88.926-32.512-129.09l-241.92-297.38c-2.8672-2.8672-6.6914-5.7383-8.6055-9.5625-16.254-19.125-29.641-38.246-78.406-38.246h-55.461c-7.6484 0-13.387 6.6914-13.387 14.34v737.23c0 7.6484 5.7383 13.387 13.387 13.387h135.78c7.6484 0 13.387-5.7383 13.387-13.387v-436.98l98.488 122.39c4.7812 6.6914 13.387 6.6914 19.125 1.9102 6.6914-4.7812 6.6914-13.387 2.8672-19.121l-123.35-152.04c-0.95703-1.9102-2.8711-2.8672-4.7812-3.8242-1.9141 0-3.8242-0.95703-5.7383-0.95703 0 0-2.8672 0.95703-3.8242 0.95703s-3.8242 0.95703-4.7812 2.8672c-1.9141 0.95703-2.8711 1.9141-3.8242 3.8281-0.95703 0.95312-0.95703 3.8242-0.95703 4.7812v462.8h-109.01v-710.46h42.074c35.379 0 43.984 10.52 57.371 27.73 3.8242 3.8242 5.7383 7.6523 8.6055 10.52l240.96 297.38c27.73 31.555 26.773 57.371 26.773 110.92v277.3c0 7.6484 6.6914 13.387 14.344 13.387h141.52c7.6523 0 14.344-5.7383 14.344-13.387v-737.23c0-7.6484-6.6914-14.34-14.344-14.34z"/>
</g>
</g>
<g fill="#fff">
<g transform="translate(668.39 972.46)">
<path d="m226.62 0c39.203 0 120.48 0 165.42-49.723 25.816-28.688 58.328-80.32 58.328-162.55 0-119.52-51.633-166.38-87.969-186.46 31.555-19.121 67.891-59.281 67.891-160.64 0-64.066-14.344-110.92-46.855-149.17-43.984-56.414-95.621-56.414-180.72-56.414h-189.33c-7.6484 0-13.387 6.6914-13.387 14.34v117.61c0 7.6523 5.7383 13.387 13.387 13.387h189.33c42.074 0 62.152 26.773 62.152 80.324 0 36.332-4.7812 72.668-62.152 72.668h-71.715c-20.082 0-41.117 14.344-41.117 41.117v70.762c0 22.949 18.168 41.117 41.117 41.117h69.801c40.164 0 51.637 2.8672 63.109 22.945 6.6953 11.477 13.391 29.645 13.391 54.504 0 71.715-24.863 87.016-70.762 87.016h-103.27c-7.6484 0-13.387 5.7383-13.387 13.387s5.7383 13.387 13.387 13.387h103.27c68.848 0 98.488-34.422 98.488-113.79 0-31.555-8.6055-53.547-16.254-67.891-19.125-34.422-46.855-36.336-87.973-36.336h-69.801c-7.6484 0-13.387-6.6914-13.387-14.34v-70.762c0-12.43 9.5625-14.34 13.387-14.34h71.715c89.883 0 89.883-72.672 89.883-99.445 0-67.891-32.512-107.1-89.883-107.1h-175.94v-90.84h175.94c82.234 0 122.39 0 159.69 45.898 16.254 21.039 40.16 57.375 40.16 131.96 0 113.79-48.766 135.78-77.453 149.17-5.7383 1.9141-7.6484 7.6484-7.6484 12.43 0 5.7383 3.8242 11.477 8.6055 12.43 25.816 10.52 96.574 37.293 96.574 173.07 0 74.586-27.73 118.57-50.676 143.43-37.293 42.074-109.96 42.074-145.34 42.074h-199.85v-516.35c0-7.6484-5.7383-14.34-13.387-14.34-7.6484 0-13.387 6.6914-13.387 14.34v529.74c0 7.6484 5.7383 13.387 13.387 13.387z"/>
</g>
</g>
</svg>
